<svg viewBox="0 0 330 200" xmlns="http://www.w3.org/2000/svg"><g><g><g><g><g><line x1="48.875" y1="177.828125" x2="43.875" y2="177.828125" style="visibility: inherit;" fill="rgb(0, 0, 0)" stroke="rgb(204, 204, 204)" stroke-width="1px"></line><line x1="48.875" y1="160.0453125" x2="43.875" y2="160.0453125" style="visibility: inherit;" fill="rgb(0, 0, 0)" stroke="rgb(204, 204, 204)" stroke-width="1px"></line><line x1="48.875" y1="142.2625" x2="43.875" y2="142.2625" style="visibility: inherit;" fill="rgb(0, 0, 0)" stroke="rgb(204, 204, 204)" stroke-width="1px"></line><line x1="48.875" y1="124.47968750000001" x2="43.875" y2="124.47968750000001" style="visibility: inherit;" fill="rgb(0, 0, 0)" stroke="rgb(204, 204, 204)" stroke-width="1px"></line><line x1="48.875" y1="106.69687499999999" x2="43.875" y2="106.69687499999999" style="visibility: inherit;" fill="rgb(0, 0, 0)" stroke="rgb(204, 204, 204)" stroke-width="1px"></line><line x1="48.875" y1="88.9140625" x2="43.875" y2="88.9140625" style="visibility: inherit;" fill="rgb(0, 0, 0)" stroke="rgb(204, 204, 204)" stroke-width="1px"></line><line x1="48.875" y1="71.13125000000001" x2="43.875" y2="71.13125000000001" style="visibility: inherit;" fill="rgb(0, 0, 0)" stroke="rgb(204, 204, 204)" stroke-width="1px"></line><line x1="48.875" y1="53.3484375" x2="43.875" y2="53.3484375" style="visibility: inherit;" fill="rgb(0, 0, 0)" stroke="rgb(204, 204, 204)" stroke-width="1px"></line><line x1="48.875" y1="35.56562499999998" x2="43.875" y2="35.56562499999998" style="visibility: inherit;" fill="rgb(0, 0, 0)" stroke="rgb(204, 204, 204)" stroke-width="1px"></line><line x1="48.875" y1="17.782812500000006" x2="43.875" y2="17.782812500000006" style="visibility: inherit;" fill="rgb(0, 0, 0)" stroke="rgb(204, 204, 204)" stroke-width="1px"></line><line x1="48.875" y1="0" x2="43.875" y2="0" style="visibility: inherit;" fill="rgb(0, 0, 0)" stroke="rgb(204, 204, 204)" stroke-width="1px"></line></g><g transform="translate(38.875, 0)"><text x="0" y="177.828125" dx="0em" dy="0.3em" style="text-anchor: end; visibility: hidden; font-family: &quot;Helvetica Neue&quot;, sans-serif; font-size: 12px; font-weight: 200;" fill="rgb(50, 49, 63)" stroke="none" stroke-width="1px">-4</text><text x="0" y="160.0453125" dx="0em" dy="0.3em" style="text-anchor: end; visibility: inherit; font-family: &quot;Helvetica Neue&quot;, sans-serif; font-size: 12px; font-weight: 200;" fill="rgb(50, 49, 63)" stroke="none" stroke-width="1px">-3.5</text><text x="0" y="142.2625" dx="0em" dy="0.3em" style="text-anchor: end; visibility: hidden; font-family: &quot;Helvetica Neue&quot;, sans-serif; font-size: 12px; font-weight: 200;" fill="rgb(50, 49, 63)" stroke="none" stroke-width="1px">-3</text><text x="0" y="124.47968750000001" dx="0em" dy="0.3em" style="text-anchor: end; visibility: inherit; font-family: &quot;Helvetica Neue&quot;, sans-serif; font-size: 12px; font-weight: 200;" fill="rgb(50, 49, 63)" stroke="none" stroke-width="1px">-2.5</text><text x="0" y="106.69687499999999" dx="0em" dy="0.3em" style="text-anchor: end; visibility: hidden; font-family: &quot;Helvetica Neue&quot;, sans-serif; font-size: 12px; font-weight: 200;" fill="rgb(50, 49, 63)" stroke="none" stroke-width="1px">-2</text><text x="0" y="88.9140625" dx="0em" dy="0.3em" style="text-anchor: end; visibility: inherit; font-family: &quot;Helvetica Neue&quot;, sans-serif; font-size: 12px; font-weight: 200;" fill="rgb(50, 49, 63)" stroke="none" stroke-width="1px">-1.5</text><text x="0" y="71.13125000000001" dx="0em" dy="0.3em" style="text-anchor: end; visibility: hidden; font-family: &quot;Helvetica Neue&quot;, sans-serif; font-size: 12px; font-weight: 200;" fill="rgb(50, 49, 63)" stroke="none" stroke-width="1px">-1</text><text x="0" y="53.3484375" dx="0em" dy="0.3em" style="text-anchor: end; visibility: inherit; font-family: &quot;Helvetica Neue&quot;, sans-serif; font-size: 12px; font-weight: 200;" fill="rgb(50, 49, 63)" stroke="none" stroke-width="1px">-0.5</text><text x="0" y="35.56562499999998" dx="0em" dy="0.3em" style="text-anchor: end; visibility: hidden; font-family: &quot;Helvetica Neue&quot;, sans-serif; font-size: 12px; font-weight: 200;" fill="rgb(50, 49, 63)" stroke="none" stroke-width="1px">0</text><text x="0" y="17.782812500000006" dx="0em" dy="0.3em" style="text-anchor: end; visibility: inherit; font-family: &quot;Helvetica Neue&quot;, sans-serif; font-size: 12px; font-weight: 200;" fill="rgb(50, 49, 63)" stroke="none" stroke-width="1px">0.5</text><text x="0" y="0" dx="0em" dy="0.3em" style="text-anchor: end; visibility: hidden; font-family: &quot;Helvetica Neue&quot;, sans-serif; font-size: 12px; font-weight: 200;" fill="rgb(50, 49, 63)" stroke="none" stroke-width="1px">1</text></g><line x1="48.875" y1="0" x2="48.875" y2="177.828125" fill="rgb(0, 0, 0)" stroke="rgb(204, 204, 204)" stroke-width="1px"></line></g></g><g transform="translate(48, 0)" clip-path="url(#clip_0)"><clipPath id="clip_0"><rect width="281" height="177"></rect></clipPath><g><g><g><line x1="0" y1="0" x2="0" y2="177.828125" fill="rgb(0, 0, 0)" stroke="rgb(60, 60, 60)" stroke-width="1px" opacity="0.25"></line><line x1="23.427083333333332" y1="0" x2="23.427083333333332" y2="177.828125" fill="rgb(0, 0, 0)" stroke="rgb(60, 60, 60)" stroke-width="1px" opacity="0.25"></line><line x1="46.854166666666664" y1="0" x2="46.854166666666664" y2="177.828125" fill="rgb(0, 0, 0)" stroke="rgb(60, 60, 60)" stroke-width="1px" opacity="0.25"></line><line x1="70.28125" y1="0" x2="70.28125" y2="177.828125" fill="rgb(0, 0, 0)" stroke="rgb(60, 60, 60)" stroke-width="1px" opacity="0.25"></line><line x1="93.70833333333333" y1="0" x2="93.70833333333333" y2="177.828125" fill="rgb(0, 0, 0)" stroke="rgb(60, 60, 60)" stroke-width="1px" opacity="0.25"></line><line x1="117.13541666666667" y1="0" x2="117.13541666666667" y2="177.828125" fill="rgb(0, 0, 0)" stroke="rgb(60, 60, 60)" stroke-width="1px" opacity="0.25"></line><line x1="140.5625" y1="0" x2="140.5625" y2="177.828125" fill="rgb(0, 0, 0)" stroke="rgb(60, 60, 60)" stroke-width="1px" opacity="0.25"></line><line x1="163.98958333333334" y1="0" x2="163.98958333333334" y2="177.828125" fill="rgb(0, 0, 0)" stroke="rgb(60, 60, 60)" stroke-width="1px" opacity="0.25"></line><line x1="187.41666666666666" y1="0" x2="187.41666666666666" y2="177.828125" fill="rgb(0, 0, 0)" stroke="rgb(60, 60, 60)" stroke-width="1px" opacity="0.25"></line><line x1="210.84375" y1="0" x2="210.84375" y2="177.828125" fill="rgb(0, 0, 0)" stroke="rgb(60, 60, 60)" stroke-width="1px" opacity="0.25"></line><line x1="234.27083333333334" y1="0" x2="234.27083333333334" y2="177.828125" fill="rgb(0, 0, 0)" stroke="rgb(60, 60, 60)" stroke-width="1px" opacity="0.25"></line><line x1="257.69791666666663" y1="0" x2="257.69791666666663" y2="177.828125" fill="rgb(0, 0, 0)" stroke="rgb(60, 60, 60)" stroke-width="1px" opacity="0.25"></line><line x1="281.125" y1="0" x2="281.125" y2="177.828125" fill="rgb(0, 0, 0)" stroke="rgb(60, 60, 60)" stroke-width="1px" opacity="0.25"></line></g><g><line x1="0" y1="177.828125" x2="281.125" y2="177.828125" fill="rgb(0, 0, 0)" stroke="rgb(60, 60, 60)" stroke-width="1px" opacity="0.25"></line><line x1="0" y1="160.0453125" x2="281.125" y2="160.0453125" fill="rgb(0, 0, 0)" stroke="rgb(60, 60, 60)" stroke-width="1px" opacity="0.25"></line><line x1="0" y1="142.2625" x2="281.125" y2="142.2625" fill="rgb(0, 0, 0)" stroke="rgb(60, 60, 60)" stroke-width="1px" opacity="0.25"></line><line x1="0" y1="124.47968750000001" x2="281.125" y2="124.47968750000001" fill="rgb(0, 0, 0)" stroke="rgb(60, 60, 60)" stroke-width="1px" opacity="0.25"></line><line x1="0" y1="106.69687499999999" x2="281.125" y2="106.69687499999999" fill="rgb(0, 0, 0)" stroke="rgb(60, 60, 60)" stroke-width="1px" opacity="0.25"></line><line x1="0" y1="88.9140625" x2="281.125" y2="88.9140625" fill="rgb(0, 0, 0)" stroke="rgb(60, 60, 60)" stroke-width="1px" opacity="0.25"></line><line x1="0" y1="71.13125000000001" x2="281.125" y2="71.13125000000001" fill="rgb(0, 0, 0)" stroke="rgb(60, 60, 60)" stroke-width="1px" opacity="0.25"></line><line x1="0" y1="53.3484375" x2="281.125" y2="53.3484375" fill="rgb(0, 0, 0)" stroke="rgb(60, 60, 60)" stroke-width="1px" opacity="0.25"></line><line x1="0" y1="35.56562499999998" x2="281.125" y2="35.56562499999998" fill="rgb(0, 0, 0)" stroke="rgb(60, 60, 60)" stroke-width="1px" opacity="0.25"></line><line x1="0" y1="17.782812500000006" x2="281.125" y2="17.782812500000006" fill="rgb(0, 0, 0)" stroke="rgb(60, 60, 60)" stroke-width="1px" opacity="0.25"></line><line x1="0" y1="0" x2="281.125" y2="0" fill="rgb(0, 0, 0)" stroke="rgb(60, 60, 60)" stroke-width="1px" opacity="0.25"></line></g></g></g><g><g><line x1="0" y1="35.56562499999998" x2="281.125" y2="35.56562499999998" fill="rgb(0, 0, 0)" stroke="rgb(153, 153, 153)" stroke-width="1.5px"></line></g></g><g><g><line x1="23.427083333333332" y1="0" x2="23.427083333333332" y2="177.828125" fill="rgb(0, 0, 0)" stroke="rgb(153, 153, 153)" stroke-width="1.5px"></line></g></g><g><g><g><g><g><path stroke="rgb(255, 112, 67)" stroke-width="2px" d="M23.63792708333333,54.63937229868024L23.919052083333334,76.68845230697188L23.94247916666667,79.42328476358054L24.24703125,96.62647459590055L24.52815625,113.42706338862601L25.23096875,131.5475862542657L25.27782291666667,142.1870584587856L25.37153125,152.66044194935694L26.097770833333335,156.41281028157073L26.168052083333336,161.5565323105078L26.402322916666666,168.58439056072652L26.613166666666665,176.08677717716898L27.034854166666666,180.8558139834285L30.29121875,179.3591032646382L30.29121875,171.74452473111705L30.689479166666665,175.6523337004085L30.85346875,184.85563955726624L32.37622916666667,178.09312623229488L32.42308333333333,176.63693738452884L32.44651041666667,167.3342763855593L32.6105,164.30663582716056L32.63392708333333,174.240614902663L32.727635416666665,164.90769802841334L32.821343750000004,164.71201837324884L32.891625000000005,169.70186101038965L33.21960416666667,162.71585974097053L34.48466666666666,162.91481140444196L34.789218749999996,167.45648209279494L34.812645833333335,160.0338055542706L34.882927083333335,157.25117782424365L34.953208333333336,161.69982238213433L35.16405208333333,159.66614293210176L35.18747916666667,150.73547317337292L35.30461458333333,144.16861964009078L35.86686458333333,145.33301397528322L35.91371875,142.3269714612581L36.218270833333335,148.75481940264294L36.28855208333333,145.9782516157864L36.35883333333333,150.6604420668674L36.967937500000005,148.0827636269787L37.01479166666666,135.8897029088725L37.03821875,132.4290568206773L37.2490625,116.3510260126906L37.389625,118.46085065137865L37.998729166666664,112.2836659057824L38.186145833333335,106.69823552572043L38.842104166666665,106.64881544413157L38.865531250000004,108.73427774907344L39.029520833333336,104.73101908535475L39.076375000000006,101.67666767162508L39.638625,85.69324474653556L39.73233333333334,87.09807856140111L39.990031249999994,88.3275171211813L40.130593749999996,86.31618892827358L40.247729166666666,69.40037365874632L40.59913541666667,70.85794193101516L40.71627083333333,63.5948432315668L40.880260416666665,70.86291597779275L41.25509375,69.32088395891L41.6065,61.30829879023082L41.79391666666667,60.05713211940197L41.98133333333334,48.862614272234396L42.0281875,51.62291359838699L42.215604166666665,60.896675864081715L42.63729166666667,55.44887677425659L43.12926041666667,53.15866911475071L43.22296875,60.330997690419636L43.4338125,67.0713717261614L43.55094791666667,67.95636972112428L43.7149375,70.17008912979345L43.73836458333333,71.20981576632728L43.76179166666667,69.72507848510902L44.277187500000004,63.525304040132525L44.81601041666667,65.56038666967663L45.02685416666667,67.61056062641212L45.1205625,71.2939216939358L45.28455208333333,64.0848698229118L45.30797916666667,67.01525639954353L45.4016875,52.497878319177886L45.87022916666666,47.510205076614824L46.08107291666666,42.073364670855995L46.19820833333333,43.29795756409061L46.221635416666665,42.570957585540356L46.854166666666664,33.61769481803742L46.994729166666666,27.675737571601672L47.27585416666666,28.794915891202294L47.744395833333336,22.573001241691117L47.744395833333336,18.09548921272588L47.83810416666667,16.398929528879734L47.88495833333334,1.9343231932745084L47.97866666666666,5.345782880868057L48.58777083333334,6.987253522208647L48.68147916666666,7.107836842138369L49.032885416666666,0.36986837720797894L49.079739583333335,3.447870987867873L49.17344791666667,7.8618768463823585L49.26715625,5.279076522904234L49.31401041666667,-1.3079693995013315L49.548281249999995,3.173471160033671L49.618562499999996,2.8165640086229757L49.618562499999996,2.156948881762986L49.852833333333336,-2.3909323031200245L50.57907291666667,-2.870945911458165L50.883624999999995,0.2197836604112524L51.000760416666665,-3.061681269622227L51.39902083333333,-1.862223420152901L51.42244791666667,1.2493121214301368L51.445875,2.1857933884913336L51.96127083333333,-3.1926814129319894L52.05497916666667,-0.6975439539025672L52.1486875,4.525753885405038L52.17211458333333,3.885011060250889L52.24239583333333,4.407478186317121L52.52352083333333,4.703112494097866L52.54694791666667,5.516255895731888L52.66408333333333,11.650438781865262L52.68751041666667,14.604045000657635L52.73436458333333,13.331452665618173L52.89835416666667,9.318331031510866L52.96863541666667,10.195619553482345L53.08577083333333,13.511071282978833L53.24976041666667,19.526986362270833L53.32004166666667,21.457932658147712L54.86622916666666,19.116475464419665L55.077072916666665,24.26086720834519L55.5221875,35.483050235422525L55.686177083333334,41.66969055395549L56.0844375,44.02122368610634L57.068375,48.150444170962174L57.3495,53.54611866779946L58.16944791666667,58.92848388423218L58.263156249999994,61.260486391453114L58.68484375,66.19954746530541L59.012822916666664,74.21469716171079L59.036249999999995,71.24479861297996L59.715635416666665,79.638285071485L60.441874999999996,80.68853098710345L60.62929166666667,89.39387808656672L60.84013541666667,90.27520968178497L60.8635625,95.64035581147424L61.26182291666667,96.78000919980259L61.37895833333333,103.77242973037036L61.40238541666667,108.48548804037256L61.4258125,105.62797381736328L61.44923958333333,102.73105586354428L61.44923958333333,100.80806882431801L62.128625,109.35983072668729L62.59716666666667,108.45500267386684L62.972,108.82536218160541L63.276552083333335,113.41741996076196L63.34683333333333,113.92854664067322L63.60453125,115.26487885975774L63.815375,114.78385785558186L64.00279166666667,118.69286517344929L64.19020833333333,115.51152103121888L64.5181875,108.61649719641098L64.56504166666666,111.6107947395175L65.59583333333333,109.57718898525412L65.80667708333334,101.43164187831032L65.83010416666667,107.73761398769823L65.85353125,106.4401349358404L65.9238125,99.36554662899043L66.25179166666666,96.56579470390598L66.41578125,95.94216435569238L67.07173958333334,89.16066298554964L67.11859375,89.62056105327979L67.23572916666667,89.31665432985052L67.84483333333334,79.94238696924106L68.10253125,84.27605129603297L68.14938541666666,80.2670466573462L68.17281249999999,78.13052391463071L68.28994791666666,73.30014908882113L68.68820833333334,69.47028598128038L68.82877083333332,70.0348076012777L69.437875,66.08261167419235L69.76585416666667,67.91263654135037L70.09383333333334,59.770519600897245L70.53894791666667,51.452282516934986L70.65608333333334,49.70112030202361L70.7029375,49.270603002275294L71.35889583333334,43.92379399035664L71.42917708333333,43.98200466920014L71.5463125,44.1196047482361L72.41311458333334,35.18408617667674L72.55367708333333,29.851407780899507L72.57710416666666,27.61499967599147L72.62395833333333,27.45707125322437L72.64738541666667,28.330595111922406L72.92851041666667,32.83259906635493L72.99879166666666,32.93491516945991L73.02221875,34.02274391796877L73.11592708333333,32.51159085372353L73.35019791666667,32.89873889253596L73.39705208333334,24.67513651410377L73.58446875,25.873124506586834L73.84216666666667,28.760952409234818L73.98272916666666,27.052831692696913L74.00615624999999,19.425703287095615L74.59183333333333,24.199295204525185L74.87295833333333,28.352926837660164L74.96666666666667,28.120634092655678L75.03694791666668,32.148917304287494L75.34150000000001,35.81054639909274L76.0443125,35.63820494223299L76.23172916666667,36.952048976659285L76.48942708333334,43.615103271344L77.05167708333333,47.285410273776165L77.07510416666666,47.05918061380427L77.63735416666667,40.897521890818126L77.96533333333333,43.33146371923033L78.05904166666667,40.00866446799199L78.10589583333334,39.78841525398141L78.19960416666667,39.80458372895387L78.62129166666666,37.86351600126605L78.69157291666666,37.95161952925059L79.06640625,40.35483126939735L79.16011458333334,43.824507471405866L79.51152083333334,43.88115049594023L79.65208333333334,45.0656697845437L79.67551041666667,45.57380342083289L80.12062499999999,43.32216391174268L80.26118749999999,43.35820497642544L80.75315625,45.72833960981271L81.54967708333334,43.06209048757242L81.64338541666666,40.45624256604111L81.69023958333334,43.20269255789785L82.58046875000001,42.638481234775014L82.60389583333334,43.629252219619474L82.60389583333334,43.99110627996748L83.23642708333333,46.74002361552613L83.56440625,48.417174924502945L84.33749999999999,42.22037622741212L84.78261458333333,42.136591668587755L85.83683333333333,44.52081566030492L86.02425,48.55182962402529L86.18823958333333,50.07418137600915L86.91447916666667,53.9546317031884L87.17217708333332,63.155148730927934L88.01555208333333,67.9457974754299L88.03897916666666,76.4651259984091L88.4138125,80.29200167137475L88.6949375,84.76643918560798L88.85892708333333,85.15248405162608L89.37432291666667,93.33675792023011L89.70230208333334,93.84970639365594L89.72572916666667,95.31076457898428L89.77258333333334,96.8504900583661L89.93657291666668,100.37632274621943L90.42854166666666,100.69000200089347L90.45196874999999,98.56033156175333L91.0845,105.33443225418875L91.45933333333332,107.8320733347258L91.64675,103.90442890338429L91.69360416666666,107.56186048932271L92.09186458333333,107.36189355848668L92.11529166666666,110.7809097558167L92.18557291666667,114.10859702318348L92.60726041666668,111.08535213881396L92.86495833333333,110.49851858266392L93.14608333333332,107.65276199816584L93.1929375,107.21748490744184L93.26321875,109.45915332086891L93.59119791666667,108.16236434398895L93.82546875,112.36601756107096L93.87232291666666,109.82083648795654L94.05973958333334,112.39590244743091L94.10659375,109.25019135655678L94.62198958333333,109.68261163521838L94.90311458333333,108.37992006697674L94.92654166666667,108.7648392153288L95.11395833333333,106.18209735468061L95.23109375,107.05569487312457L95.81677083333334,105.00217859833847L96.05104166666666,101.94309317358977L96.19160416666666,98.7332649674335L96.26188541666666,99.77487284459583L96.425875,97.04339140723891L97.08183333333334,88.99955534112898L97.36295833333332,85.05077740354804L97.40981249999999,84.1721467042176L97.69093749999999,82.00644624884177L97.83149999999999,76.35092748406677L97.94863541666666,70.75855306820958L98.112625,65.48291211329038L98.39375,71.87824153215963L99.49482291666666,66.26574481695165L99.51825,64.55343529220978L99.56510416666667,65.70352221674658L99.799375,61.470077382382385L100.43190625,58.455710174057856L100.54904166666667,60.02819526346862L100.75988541666666,60.06494902172588L101.39241666666668,62.11820413730386L101.50955208333333,65.22978126994873L101.57983333333334,65.62508727515998L101.65011458333333,67.64495214383462L101.67354166666668,66.77134425065313L101.76724999999999,68.39585490455563L101.86095833333333,68.74155240628325L101.88438541666666,70.58988585962773L102.02494791666666,67.53980621297013L102.35292708333333,68.68754547453733L102.39978125,68.26668301033563L102.51691666666666,64.48653340962582L103.454,68.22855199382933L103.61798958333333,66.61016282785673L103.71169791666667,71.07604767291986L103.8756875,73.08377616753724L104.64878125000001,76.68302569583386L104.97676041666666,74.09079689522282L105.02361458333333,73.41550596991L105.32816666666666,74.14111590766201L105.58586458333333,76.95390295182641L106.66351041666667,77.8778413560687L106.75721874999999,78.51030403862588L107.01491666666666,77.89441655838604L107.22576041666667,77.21855514043042L107.952,78.47628826018254L108.30340625,76.20522678712653L108.93593750000001,77.97865371179371L109.05307291666668,78.07868503017299L109.26391666666666,79.53006352667852L109.38105208333333,82.90974065384175L109.40447916666666,83.0928965884203L109.61532291666667,85.80199609608974L109.89644791666667,80.75529732323602L110.10729166666667,85.28187326471159L110.57583333333332,87.1052406129548L110.59926041666668,90.15676680191213L110.69296874999999,89.17012081509145L110.81010416666666,87.65137920627183L110.83353125,89.3733192634534L111.02094791666667,91.28428682353803L111.39578125,97.9450848789019L111.63005208333334,98.69268177515283L112.54370833333333,98.09020856360206L112.96539583333333,102.87666990393167L113.15281250000001,102.54631731604795L113.34022916666667,107.5715135442928L113.45736458333334,102.74521848903392L113.52764583333332,102.76311835406001L113.83219791666666,101.6457007310258L113.94933333333333,102.01288727918067L114.16017708333334,105.1046786937046L114.2773125,104.8848829229431L114.32416666666667,110.11731040535908L114.5584375,112.85059856807315L114.65214583333334,117.08294293096736L114.76928125,116.5671089974706L115.16754166666666,115.13050255403903L115.23782291666666,115.40957490340463L115.94063541666667,115.08884977361913L115.9640625,116.37592903918835L116.33889583333334,118.70757466999777L116.92457291666666,115.8244625079518L117.01828125,115.06206272649082L117.43996875,114.2819403529603L117.55710416666668,115.23604285421601L117.69766666666668,118.37647858621258L117.90851041666666,119.43725112594116L119.24385416666668,120.60520328829853L119.29070833333334,119.92456812411646L119.45469791666666,122.15058631330788L119.64211458333332,123.13404674369131L119.71239583333333,123.03016364090465L120.20436458333333,120.52666207738412L120.39178125000001,117.95053337030228L120.53234375000001,116.6199879912294L120.71976041666667,118.54362621174795L120.95403125,116.36955224941102L121.0243125,117.06808584970192L121.04773958333332,115.9081592276213L121.11802083333333,116.67255730655893L121.35229166666666,115.62933322505418L121.37571875,114.01580769727387L121.446,113.99701036220645L121.53970833333334,111.93170735869323L122.59392708333333,111.71713137408206L122.64078125,110.97226150173015L122.96876041666667,109.30662769817154L123.01561458333333,109.64891212995553L123.08589583333334,108.68408724913422L123.76528124999999,111.13747715383424L124.06983333333334,110.95962991493732L124.16354166666666,110.16009168075199L124.56180208333333,113.86133830306932L124.56180208333333,115.99576829944851L124.6789375,117.07353546664001L125.12405208333334,120.20846942749549L125.21776041666668,119.6172400700267L125.26461458333333,124.5484635506401L125.63944791666667,125.039861574133L126.20169791666667,128.07798670551762L126.24855208333334,130.23718272609463L126.50625000000001,130.2602216080603L126.71709374999999,132.2007819825874L126.76394791666667,129.4131020840684L126.99821874999999,130.74519005815264L127.13878125,130.16755426168487L127.41990625,130.850378001571L127.4901875,133.47781914552468L127.70103125,134.50045339155446L127.72445833333333,132.59560715608745L127.74788541666668,132.48433643849464L128.00558333333333,135.23475752217632L128.07586458333333,136.30909909899867L128.35698958333333,135.25407529888057L128.54440625,136.0525983185619L128.75525000000002,133.37520592934192L128.82553124999998,132.67080675319613L128.94266666666667,135.2162723973738L129.1769375,136.54163440050763L129.48148958333334,136.7092291109686L129.57519791666667,134.94979956137686L129.83289583333334,138.31031253390043L130.65284375,138.40359051199275L131.49621875,134.6669117907972L131.56650000000002,132.8211213368351L131.89447916666666,133.9834208201274L132.12875,135.49454815333516L132.43330208333333,135.67912001666684L132.5504375,136.74064298306263L132.92527083333334,139.18530599137756L133.15954166666668,135.9680519393719L133.6749375,135.26084786573867L133.69836458333333,133.29074204456697L133.93263541666667,135.6113520967477L134.02634375,133.9620990549036L134.33089583333333,133.43402228501486L135.15084375,131.3592118689242L135.24455208333333,131.334638430108L135.33826041666666,133.02101550604664L135.47882291666667,132.0328824779735L135.73652083333334,128.21099668570434L135.87708333333333,128.2844579629783L136.18163541666667,126.5283933134487L136.46276041666667,126.77478486428325L136.53304166666666,126.9323271329979L136.81416666666667,123.55948761139987L137.02501041666667,122.14878772190022L137.72782291666667,120.63754061723237L137.84495833333332,121.7657075426846L138.36035416666667,119.4628279645365L138.68833333333333,122.24892315471897L138.71176041666666,122.15110752942996L139.18030208333332,123.63155020691656L139.46142708333332,122.60149043779197L140.23452083333333,124.64285823065413L141.14817708333334,125.0065443930529L141.19503125,125.93084792837516L141.24188541666666,124.81660904374726L141.405875,122.82613789669875L141.5464375,124.71402327824953L141.80413541666667,124.00416807716681L141.8744166666667,124.36271099499221L142.0618333333333,124.19246355892037L142.24925,124.65295744002351L142.530375,124.18752087211901L142.71779166666667,122.55460419628797L143.42060416666666,120.95825166507827L143.56116666666668,120.51076393845238L143.7954375,119.72869138015842L143.86571875,118.53746880527457L143.936,117.94418552569223L145.20106249999998,118.19182069719835L145.2244895833333,116.38933196497561L145.48218749999998,115.7922084464586L145.52904166666667,115.82061336600519L146.0444375,111.42327648707472L146.16157291666667,110.76176259403373L146.27870833333333,114.44535863658754L146.3255625,112.77716669327599L146.67696875000001,115.40028036705601L146.77067708333334,115.42352509243457L147.05180208333334,116.27625107194882L147.05180208333334,116.68065143779458L147.19236458333333,115.44910583529199L147.5671979166667,121.39297194739179L147.66090625,122.13147140836713L147.87175000000002,121.24947532532212L147.91860416666665,118.76475440393446L148.0357395833333,120.68756058532333L148.12944791666666,120.13334633391104L148.22315625,123.37789390344025L148.41057291666667,124.86287265395285L148.76197916666666,125.38526935532786L148.87911458333332,125.17809624764381L149.32422916666667,123.28564244653617L149.4179375,124.6072494205584L149.44136458333332,125.29629217396675L149.6990625,126.03975036627352L149.76934375,122.8425784899968L150.09732291666668,123.02910577351916L150.21445833333334,123.53668605861108L150.28473958333333,124.06210161255026L150.40187500000002,124.5803028279914L150.51901041666667,121.50613023128352L150.68300000000002,122.685167440094L151.1281145833333,118.86514759648887L151.15154166666665,116.73082397156385L151.54980208333333,114.77557318254368L151.59665625,115.54142790343795L151.87778125,116.66028675440809L151.9480625,114.522209520661L151.97148958333332,114.36631324083996L152.44003125,115.79130571837062L152.5103125,113.36369457754394L152.53373958333333,112.50312861152231L152.650875,111.27598598061645L152.72115625,111.1637140158334L152.88514583333333,109.53485323986523L152.97885416666668,106.0046713264353L153.16627083333333,104.606863972042L153.4708229166667,103.49543116837383L153.68166666666664,100.69326234131836L153.79880208333336,97.96851376575101L154.0096458333333,96.56909470651668L154.31419791666667,94.15907780673577L154.59532291666667,92.5574755194573L154.61875,88.96589671896628L154.61875,86.64390147895652L155.3215625,83.64381424752497L155.34498958333333,83.0635659491576L155.46212500000001,83.01611211631045L155.90723958333334,81.3265622954568L156.49291666666667,80.85726246318225L157.07859374999998,78.730191055125L157.17230208333334,79.846718893162L157.59398958333333,80.12602546644902L157.80483333333333,82.14230617229758L158.03910416666668,83.68660975363623L158.36708333333334,83.2625830058263L158.39051041666667,85.03700403565206L158.48421875,86.33516867544674L158.50764583333333,86.57020043826951L158.6950625,86.36125333352001L158.78877083333333,90.07591914470859L158.90590625000002,89.10510601482312L159.06989583333333,86.73249949682665L159.2573125,88.80130483549183L159.72585416666666,92.60728918070404L159.86641666666665,95.88513236644751L160.00697916666667,97.86191532255938L160.12411458333332,100.2241959975167L160.28810416666667,105.57425234025739L160.31153125,103.33157387379421L160.73321875,102.66065054239996L161.15490625,106.47534821571212L161.48288541666668,108.11861186946213L161.646875,110.08381052330004L161.99828125000002,112.72212377139849L162.27940625000002,113.07616338073564L162.49024999999997,114.49238866352648L162.88851041666666,119.91449720730552L163.1930625,124.44579683613878L163.35705208333331,127.54866430712998L163.38047916666667,127.95952439220702L163.61475,129.502573835623L163.68503125,128.2913747130464L163.84902083333333,127.4511485751647L163.96615625,127.24877136863341L164.01301041666667,127.8885638455574L164.10671875,128.7718516957774L164.3175625,127.83918427896586L164.458125,130.48854425264648L165.6060520833333,129.78181849368363L165.77004166666666,127.20868960885971L165.91060416666664,127.64355921994907L165.95745833333334,128.65700320632018L166.14487499999998,127.8533946927235L166.51970833333334,125.63318867718253L166.63684375,127.34926762929601L167.15223958333334,127.35539455980685L167.38651041666668,129.06279336971417L167.4099375,126.65154042281138L167.59735416666666,124.21056999407665L167.78477083333334,122.9452357717899L168.62814583333332,122.88875901660606L168.72185416666665,121.83439836121372L169.0966875,121.99473786304456L169.30753124999998,120.37334304928817L169.35438541666667,120.48155835258983L169.61208333333335,119.10750522874606L170.36175,115.0308606676031L170.45545833333333,111.8777815113526L170.71315625,111.5015846228636L170.97085416666667,108.90726748606781L171.2988333333333,110.30684829742444L171.83765624999998,109.15057200128277L172.16563541666667,107.2509255315926L172.86844791666667,101.09814710876742L173.05586458333335,98.04915027744411L173.40727083333334,96.25515411527061L173.75867708333334,96.43300929862919L174.03980208333334,98.21167404799856L174.11008333333334,96.83195887445925L174.25064583333335,99.48074070626211L174.41463541666664,102.91035086222716L174.48491666666666,103.59262240563767L174.97688541666665,102.66752650177442L174.97688541666665,101.96738970330932L175.21115625,102.43878520102248L175.89054166666668,104.31191310656635L176.10138541666666,104.21494791789392L176.4059375,105.3901875396582L176.42936458333335,106.39067928254678L176.52307291666668,105.61740971362636L176.66363541666666,103.99433684233453L176.80419791666668,102.52998084475772L176.9681875,99.94211595684395L177.0150416666667,100.6429986663467L177.22588541666664,101.35020003156698L177.43672916666665,99.68001847944758L177.64757291666666,100.02762300897896L177.81156249999998,100.52066636192357L177.92869791666666,98.20967522238229L177.97555208333333,96.62213490664682L178.11611458333334,98.77151738053394L178.11611458333334,99.88924862784644L178.16296875,97.72994729350508L178.49094791666667,97.7557092232734L178.7955,96.58193943847597L179.19376041666666,96.09508531212437L179.35775,95.94385473710076L179.7794375,96.41154272456036L180.41196875,94.95862740262787L180.45882291666666,94.56242754837537L180.69309375,94.4077796580235L181.25534375,94.03293881904123L181.60675,92.78725445116184L182.09871875000002,92.90209424671306L182.68439583333335,97.41490020201667L182.8718125,99.88450469148793L182.96552083333336,102.3864350293436L183.03580208333335,102.61054404806245L183.62147916666666,101.64452563229888L183.64490625,102.15601498874241L183.69176041666665,105.51433676804432L183.83232291666667,105.72745181694822L184.16030208333333,105.16934409201262L184.44142708333334,102.7185035853691L184.53513541666666,102.05177502582116L184.79283333333333,99.30707313939718L185.19109375,98.19887869402639L185.58935416666668,96.43970046114843L185.87047916666668,93.55123133046581L185.89390625000001,91.30309788753482L186.05789583333336,90.26520030435854L186.10475,90.74914410017095L186.667,88.8537346062193L186.69042708333333,88.73995168996629L186.90127083333334,88.71077585365045L186.948125,87.6195885467271L187.04183333333333,86.94668592677951L187.06526041666666,86.42615781764054L187.13554166666665,84.80161877819815L187.3698125,85.4138246853585L187.39323958333333,86.37158300053687L188.35375000000002,90.52484890056617L188.42403125,92.64711385999897L189.29083333333332,98.47424386998881L189.99364583333332,104.66277513570111L190.06392708333334,106.825880940655L190.34505208333334,106.91704291546291L190.76673958333333,108.55619002368418L190.79016666666666,109.85610291800718L190.86044791666666,110.37695765967263L190.95415625,109.42015293404515L191.16500000000002,110.2392054126564L191.3055625,110.60793505942246L191.37584375,109.13083298614873L191.61011458333334,110.29866757250579L191.65696875,106.74394530896396L192.05522916666666,103.71866262268455L192.64090625,99.22367918617387L192.92203125,89.85599590541041L193.20315625,87.3228248675234L193.62484375,82.59578152296346L193.90596875,82.29258061645865L193.92939583333333,79.52898635177876L194.63220833333335,80.67548398947159L194.81962499999997,80.88447026118898L194.88990625,80.91232735696592L195.2413125,81.9482646416614L195.33502083333332,85.13332745647368L195.38187499999998,84.52178679624758L195.45215625,85.30355052154997L196.15496875,88.27641687185607L196.29553125,89.1944130601945L196.52980208333332,91.94543223067895L196.55322916666668,94.43459393060073L196.60008333333334,96.50308454141538L196.6469375,99.72844261634658L196.69379166666667,102.59830420201011L196.88120833333335,105.38443304648989L196.95148958333334,103.05253883481618L196.99834375,103.98776785079L197.32632291666667,108.45176908042048L197.63087499999997,110.23932990024099L197.86514583333332,108.35214577758079L198.23997916666667,110.67339894320826L198.23997916666667,111.91320769277966L198.26340625,114.96961019091461L198.54453125,114.48487668247613L199.29419791666666,115.22015174693819L199.43476041666668,114.75209669093464L200.18442708333333,116.43312620741231L200.67639583333332,111.45836721463264L200.72324999999998,116.63353695305146L201.23864583333332,116.27667027075265L201.44948958333333,114.88345463221773L201.89460416666665,116.4621696650714L202.24601041666668,115.05493162540974L202.31629166666667,113.67724484722842L202.43342708333333,113.3295315240087L202.64427083333334,111.92702642645013L202.92539583333334,111.6290936062668L203.11281250000002,112.12823648303355L203.18309375,114.42480862617259L203.27680208333334,113.24386431920387L203.81562499999998,114.05581218479787L203.88590624999998,115.11279351698587L204.07332291666665,116.58336684815424L204.14360416666665,118.73735180206499L204.26073958333333,117.77948544923902L204.47158333333334,118.69043610217835L204.659,117.8481855524937L204.68242708333332,117.29021480163097L205.05726041666668,117.31818900007104L205.29153125,115.31214332251606L205.43209375,115.11950703900374L205.97091666666668,111.71760800982305L206.11147916666667,108.11348368990296L206.25204166666668,106.85884703318997L207.0017083333333,99.99137810183004L207.35311458333334,96.25338350601456L207.79822916666666,91.71278822626151L208.07935416666666,87.75050800997303L208.17306250000001,85.27741134767705L208.24334375,85.0774794134794L208.43076041666666,85.62961775218237L208.61817708333334,85.4207647168922L208.78216666666668,84.19249305303619L208.82902083333335,83.41994665667846L209.03986458333335,82.1587584939923L209.27413541666664,82.25724445565498L210.58605208333333,84.0254075564978L210.67976041666665,85.08782664033996L210.75004166666668,84.06099870811833L211.03116666666668,83.62841032511554L211.05459375,88.61109127501584L211.49970833333333,91.85462203726135L211.80426041666666,95.6346032090781L211.94482291666668,98.50416875364171L212.20252083333335,105.34156169373861L212.88190625,111.4157199771945L213.04589583333333,113.85983915041353L213.16303125,120.14288701123277L213.20988541666665,120.80114073190856L213.74870833333333,125.72685909947018L214.59208333333333,125.03619082260288L214.84978125,123.04945884280298L214.89663541666667,124.39016323556243L214.9200625,124.86217228573406L214.94348958333333,125.907373239409L215.06062500000002,128.0843100415534L215.29489583333336,127.45987181466023L215.59944791666666,127.4468733671379L215.99770833333332,129.4281696294589L216.09141666666667,129.82728832363148L216.747375,129.81786230295336L217.37990625,130.25495560520554L217.68445833333334,128.8041343441824L217.75473958333333,124.15654410131097L217.98901041666667,118.91177561049055L218.57468749999998,114.17812764086958L218.62154166666664,115.8646653577008L218.996375,114.61377081866969L219.58205208333334,112.4435375773663L219.81632291666668,107.41550618581502L220.19115625,108.41819355650263L220.30829166666666,108.41157102950524L220.30829166666666,108.15406368236607L220.61284375,106.74568457937758L220.70655208333335,103.8749455849023L220.87054166666667,98.93542348561832L221.36251041666665,99.72509901415198L221.6670625,99.81010712007217L222.53386458333333,96.06090784412345L223.33038541666667,96.12352055738401L223.68179166666667,98.40190951648373L224.08005208333336,101.13502858250152L224.10347916666666,102.68992519881613L224.36117708333333,100.71384491089754L224.80629166666665,105.36527143993241L224.85314583333331,107.15360895650542L224.92342708333334,108.56137896273707L225.0405625,109.57500359859571L225.34511458333333,108.64384621111456L225.36854166666666,110.8527539266819L225.43882291666668,111.57515821001972L225.6028125,110.9666526773098L225.74337500000001,111.29149960836904L225.95421875,112.46403033889017L225.97764583333333,115.31369133863855L226.23534375,114.62368944122795L226.25877083333333,114.37544907351973L226.25877083333333,114.04243174147987L226.30562500000002,115.65527511687507L226.51646875,114.50327089608568L226.93815625000002,110.57461680043255L227.12557291666664,107.08843920122692L227.2895625,103.86608551675742L227.2895625,101.72000390937725L227.40669791666664,101.23312046483636L227.54726041666666,99.89889983970214L227.66439583333332,98.68660096817187L227.75810416666667,98.49967142547949L227.87523958333333,98.39916454080215L228.43748958333333,96.10574355780167L228.53119791666666,94.9489658997004L228.57805208333335,94.72893420401482L228.90603125,93.32931047614377L229.07002083333333,93.58000577009297L229.14030208333335,98.10234928349601L229.30429166666667,98.59820521604983L229.32771875,98.42493322302083L229.42142708333336,99.29367448573818L229.49170833333335,100.51089163905685L229.51513541666668,100.22441895476761L229.56198958333334,99.0716668174969L229.84311458333335,101.15122147314591L229.96024999999997,99.43716974027659L230.00710416666666,98.83441497828188L230.1945208333333,98.16463553604855L230.35851041666666,99.36547586588485L230.78019791666665,100.87596813183085L230.80362499999998,103.07954986388121L230.87390625,105.04362801667831L231.01446875,108.12365156416166L231.57671875,110.05733244361917L231.60014583333333,108.14501579548383L231.647,109.51114804354587L231.97497916666669,111.37468507979679L232.18582291666667,112.35774234172325L232.42009375,115.16043601177108L233.70858333333334,123.20453066076024L233.82571875,128.7256896158766L234.01313541666667,133.559493004126L234.0365625,135.41938037982146L234.15369791666666,137.02967477566338L234.48167708333332,137.5791956336876L234.8799375,138.57773764619708L234.8799375,139.03979673051523L234.99707291666667,138.04588982083612L235.0205,136.8793769229544L235.48904166666668,138.96462051743822L235.65303125000003,140.45614031210278L235.77016666666665,137.1113840952798L235.95758333333333,137.24149131776596L235.98101041666666,137.90652739198032L236.07471875,136.10040607387438L236.26213541666667,139.84366820415624L236.49640625,139.53999411797983L236.77753125,137.48391385994233L237.03522916666665,138.27712536288425L237.36320833333335,138.55850526769834L237.50377083333333,136.70967212068962L237.99573958333335,135.49431057422117L238.01916666666668,132.1378069680855L238.5111354166667,127.82607745182068L238.60484375000001,125.2712075951788L239.54192708333332,118.16383144873936L239.56535416666665,114.45133340012168L240.57271875,110.76169982255182L240.66642708333333,106.13788132757355L241.18182291666668,105.99200637901073L241.20525,106.90682004519846L241.79092708333332,101.22811499225227L241.9080625,100.72501415155605L242.49373958333334,100.46403164858982L242.610875,101.78138375905375L242.70458333333332,99.36067911119594L243.0325625,96.46695232797464L243.47767708333333,97.33888504257082L243.66509375,95.89093776405025L244.15706250000002,94.82010277426343L244.7193125,93.92177169928611L245.18785416666665,91.85871925881303L245.49240625,91.79909477147935L245.70325,91.0938190045266L245.77353125,93.05548571391753L245.82038541666665,91.09030651148468L246.03122916666666,91.59924981904811L246.10151041666666,93.3883614204096L246.14836458333335,91.68925554688377L246.28892708333333,90.53650606325628L246.546625,95.89117305532909L247.08544791666668,100.24311853620897L247.34314583333335,103.18761180504255L247.7648333333333,103.04552692242916L247.95225,105.34875604580913L248.35051041666665,108.22275753182812L248.49107291666667,110.2275180188575L248.63163541666665,112.63397571192732L249.07675,112.86390392986864L249.14703125,112.68418465619045L249.19388541666666,113.6803236917541L249.4984375,116.05820133959566L249.80298958333333,118.03862608835288L250.74007291666666,117.35878137061113L250.78692708333332,114.0458399540729L250.83378125,115.46158591667097L251.41945833333332,117.01382171666195L251.65372916666666,116.49373636815292L251.84114583333334,114.22470680429544L251.86457291666667,115.1859918967128L251.888,115.36876441211939L252.12227083333335,114.97434504551556L252.19255208333334,115.08802929444829L252.47367708333334,114.78431854500604L252.75480208333335,113.53070314856905L252.77822916666668,110.13866364587867L252.94221875000002,109.45844800847485L253.17648958333334,108.941482473479L253.41076041666665,111.54406087223666L253.48104166666664,109.85537264540181L253.64503125,108.56113701653113L253.76216666666664,104.75074379334825L253.87930208333333,106.253963377416L253.92615625,107.00585196902745L254.418125,107.644426295104L254.48840625,107.78971057828807L254.53526041666666,109.85124248979415L254.60554166666665,111.51561013113216L254.60554166666665,112.33976658046697L255.07408333333333,115.12142397618564L255.30835416666667,112.49491107855006L255.61290625,111.65807706352334L255.89403125,109.98162954858694L256.71397916666666,111.25052752829643L256.8311145833333,111.715622910482L256.97167708333336,112.2822235725059L257.15909375,111.9340890348991L257.34651041666666,109.81931897989155L257.44021875,110.25732549513127L257.5573541666667,106.99967263987509L257.6276354166667,106.12214096695692L258.0961770833333,104.666437720123L258.18988541666664,101.76197741381112L258.26016666666663,102.99998657466044L258.3070208333333,103.43889675951641L258.37730208333335,105.77386075148965L258.42415625,106.51826762253037L259.31438541666665,105.90560779001707L259.31438541666665,105.38482792273996L259.3378125,106.2728070270767L259.4315208333333,105.73252490486206L259.57208333333335,105.07348807707727L259.82978125,103.98786134454787L259.87663541666666,102.49220126559247L260.2280416666667,104.59118443214838L260.4857395833333,107.50851443608967L260.5560208333333,107.7507305818818L260.5794479166667,107.89848879981173L260.6497291666667,107.9824426925667L261.1182708333333,107.2947995469861L261.3056875,109.0098437640603L261.46967708333335,108.53786209961984L261.5868125,110.3825677659584L261.61023958333334,109.24064658441978L261.8210833333333,103.76904350673459L262.0553541666667,103.5842251187879L262.17248958333334,102.45694999732483L262.33647916666666,101.09810342245049L262.35990625,100.67912757755963L262.8284479166667,98.31489174477248L262.851875,97.57716637216204L263.10957291666665,96.9958963168394L263.36727083333335,97.03760195748397L263.8592395833333,98.74716395960087L263.97637499999996,98.56029113308092" style="fill: none;" fill="none"></path></g></g></g></g><g opacity="0.20000000298023224"><g><g><g><path stroke="rgb(255, 112, 67)" stroke-width="2px" d="M23.63792708333333,54.63937229868024L23.919052083333334,89.91790031194687L23.94247916666667,82.04872392192483L24.24703125,116.85742583870888L24.52815625,135.36191211640835L25.23096875,156.61479276567698L25.27782291666667,157.40167394280434L25.37153125,167.93073562309146L26.097770833333335,161.9468247115612L26.168052083333336,169.19436005353927L26.402322916666666,179.0624357789755L27.034854166666666,187.9937974601984L27.05828125,173.6578023046255L27.151989583333332,186.92909375578165L30.197510416666663,191.4111061245203L30.29121875,161.0109755769372L30.29121875,160.32271105200053L30.689479166666665,181.51403048932553L31.275156250000002,194.3336356267333L31.79055208333333,164.44181753247977L31.884260416666667,185.62333466112614L32.37622916666667,171.9780461281538L32.42308333333333,174.45265421718358L32.44651041666667,153.3802852869034L32.6105,159.76517506763338L32.63392708333333,189.14158336222172L32.727635416666665,150.90832280367613L32.821343750000004,164.41849889159204L32.891625000000005,177.18662494942546L33.21960416666667,152.23685785084962L34.48466666666666,163.21323889940976L34.789218749999996,174.26898812204598L34.812645833333335,148.89979074969887L34.882927083333335,153.07723622992634L34.953208333333336,168.37278921827675L35.16405208333333,156.61562375724316L35.18747916666667,137.3394685357809L35.30461458333333,134.31833934038877L35.86686458333333,147.07960547804834L35.91371875,137.81790769025685L36.218270833333335,158.39659131467343L36.28855208333333,141.81339993551373L36.35883333333333,157.68372774347662L36.967937500000005,144.21624596714975L37.01479166666666,117.60011183172463L37.03821875,127.23808768838643L37.2490625,92.23397980071604L37.389625,121.62558760941027L37.998729166666664,103.0178887873888L38.186145833333335,98.32008995562792L38.842104166666665,106.57468532174825L38.865531250000004,111.86247120648623L39.029520833333336,98.72613108977676L39.076375000000006,97.09514055103064L39.638625,61.71811035890131L39.73233333333334,89.20532928369938L39.990031249999994,90.17167496085166L40.130593749999996,83.29919663891197L40.247729166666666,44.02665075445546L40.59913541666667,73.04429433941841L40.71627083333333,52.70019518239424L40.880260416666665,81.76502509713173L41.25509375,67.00783593058587L41.6065,49.28942103721201L41.79391666666667,58.1803821131587L41.98133333333334,32.070837501483055L42.0281875,55.763362587615845L42.215604166666665,74.80731926262378L42.63729166666667,47.27717813951895L43.12926041666667,49.7233576254919L43.22296875,71.08949055392294L43.4338125,77.18193277977407L43.55094791666667,69.28386671356857L43.7149375,73.49066824279726L43.73836458333333,72.769405721128L43.76179166666667,67.49797256328166L44.277187500000004,54.22564237266779L44.81601041666667,68.61301061399281L45.02685416666667,70.68582156151534L45.1205625,76.81896329522134L45.28455208333333,53.27129201637581L45.30797916666667,71.41083626449108L45.4016875,30.72181119862944L45.87022916666666,40.02869521277026L46.08107291666666,33.918104062217736L46.19820833333333,45.13484690394253L46.221635416666665,41.48045761771502L46.854166666666664,20.187800666783005L46.994729166666666,18.762801701948064L47.27585416666666,30.473683370603254L47.744395833333336,13.24012926742435L47.744395833333336,11.379221169278026L47.83810416666667,13.854090003110485L47.88495833333334,-19.762586310133344L47.97866666666666,10.462972412258381L48.58777083333334,9.449459484219545L48.68147916666666,7.288711822032923L49.032885416666666,-9.737084320187563L49.079739583333335,8.064874903857714L49.17344791666667,14.482885634154087L49.26715625,1.4048760376870462L49.31401041666667,-11.188538283109665L49.548281249999995,9.895631999336189L49.618562499999996,2.2812032815068903L49.618562499999996,1.1675261914730015L49.852833333333336,-9.212754080444569L50.43851041666667,-1.5546325892210007L50.57907291666667,1.5754412963986226L50.883624999999995,4.855878018215293L51.000760416666665,-7.983878664672375L51.39902083333333,-0.06303664594886982L51.42244791666667,5.916615433804708L51.445875,3.590515289083129L51.96127083333333,-11.260393615066988L52.05497916666667,3.0451622346415945L52.1486875,12.36070064436646L52.17211458333333,2.9238968225195947L52.24239583333333,5.191178875416512L52.52352083333333,5.146563955768926L52.54694791666667,6.735970998182893L52.66408333333333,20.851713111065322L52.68751041666667,19.03445432884618L52.73436458333333,11.42256416305898L52.89835416666667,3.298648580349976L52.96863541666667,11.511552336439507L53.08577083333333,18.484248877223564L53.24976041666667,28.550858981208876L53.32004166666667,24.35435210196303L54.86622916666666,15.604289673827594L55.077072916666665,31.977454824233433L55.5221875,52.31632477603853L55.686177083333334,50.94965103175491L56.0844375,47.54852338433264L57.068375,54.34427489824593L57.3495,61.63963041305543L58.16944791666667,67.00203170888126L58.263156249999994,64.7584901522845L58.68484375,73.6081390760839L59.012822916666664,86.23742170631886L59.036249999999995,66.78995078988373L59.715635416666665,92.22851475924254L60.441874999999996,82.26389986053108L60.62929166666667,102.45189873576165L60.84013541666667,91.59720707461237L60.8635625,103.68807500600815L61.26182291666667,98.48948928229511L61.37895833333333,114.261060526222L61.40238541666667,115.55507550537587L61.4258125,101.34170248284936L61.44923958333333,98.3856789328158L61.44923958333333,97.92358826547861L62.128625,122.1874735802412L62.59716666666667,107.0977605946362L62.972,109.38090144321323L63.276552083333335,120.30550662949682L63.34683333333333,114.6952366605401L63.60453125,117.26937718838454L63.815375,114.06232634931803L64.00279166666667,124.55637615025043L64.19020833333333,110.73950481787324L64.5181875,98.27396144419909L64.56504166666666,116.10224105417728L65.59583333333333,106.52678035385907L65.80667708333334,89.21332121789455L65.83010416666667,117.19657215178012L65.85353125,104.49391635805368L65.9238125,88.75366416871547L66.25179166666666,92.36616681627929L66.41578125,95.006718833372L67.07173958333334,78.98841093033552L67.11859375,90.31040815487505L67.23572916666667,88.86079424470664L67.84483333333334,65.88098592832684L68.10253125,90.77654778622092L68.14938541666666,74.25353969931602L68.17281249999999,74.9257398005575L68.28994791666666,66.05458685010672L68.68820833333334,63.725491319969294L68.82877083333332,70.88159003127366L69.437875,60.15431778356434L69.76585416666667,70.65767384208739L70.09383333333334,47.55734419021755L70.53894791666667,38.97492689099161L70.65608333333334,47.074376979656535L70.7029375,48.62482705265282L71.35889583333334,35.90358047247864L71.42917708333333,44.069320687465364L71.5463125,44.32600486679004L72.41311458333334,21.780808319337666L72.55367708333333,21.85239018723368L72.57710416666666,24.260387518629415L72.62395833333333,27.22017861907372L72.64738541666667,29.64088089996949L72.92851041666667,39.585604998003674L72.99879166666666,33.08838932411746L73.02221875,35.65448704073205L73.11592708333333,30.244861257355666L73.35019791666667,33.4794609507546L73.39705208333334,12.339732946455484L73.58446875,27.6701064953115L73.84216666666667,33.092694263206795L73.98272916666666,24.490650617890054L74.00615624999999,7.985010678693669L74.59183333333333,31.359683080669498L74.87295833333333,34.58337428736266L74.96666666666667,27.772194975148892L75.03694791666668,38.19134212173523L75.34150000000001,41.30299004130066L76.0443125,35.3796927569434L76.23172916666667,38.92281502829863L76.48942708333334,53.609684713371095L77.05167708333333,52.790870777424416L77.07510416666666,46.71983612384648L77.63735416666667,31.655033806338906L77.96533333333333,46.98237646184862L78.05904166666667,35.024465591134486L78.10589583333334,39.45804143296553L78.19960416666667,39.82883644141256L78.62129166666666,34.951914409734314L78.69157291666666,38.08377482122742L79.06640625,43.95964887961745L79.16011458333334,49.02902177441865L79.51152083333334,43.96611503274178L79.65208333333334,46.84244871744886L79.67551041666667,46.336003875266755L80.12062499999999,39.94470464810729L80.26118749999999,43.412266573449614L80.75315625,49.28354155989362L81.54967708333334,39.06271680421196L81.64338541666666,36.547470683744194L81.69023958333334,47.32236754568294L82.58046875000001,41.792164250090735L82.60389583333334,45.115408696886135L82.60389583333334,44.53388737048954L83.23642708333333,50.86339961886405L83.56440625,50.932901887968185L84.33749999999999,32.92517818177586L84.78261458333333,42.010914830351254L85.83683333333333,48.09715164788068L86.02425,54.59835056960583L86.18823958333333,52.35770900398494L86.91447916666667,59.77530719395726L87.17217708333332,76.95592427253723L88.01555208333333,75.13177059218287L88.03897916666666,89.24411878287792L88.4138125,86.0323151808232L88.6949375,91.47809545695782L88.85892708333333,85.73155135065316L89.37432291666667,105.61316872313618L89.70230208333334,94.61912910379469L89.72572916666667,97.50235185697674L89.77258333333334,99.16007827743887L89.93657291666668,105.6650717779994L90.42854166666666,101.16052088290452L90.45196874999999,95.36582590304316L91.0845,115.4955832928419L91.45933333333332,111.57853495553137L91.64675,98.01296225637198L91.69360416666666,113.04800786823034L92.09186458333333,107.06194316223264L92.11529166666666,115.9094340518117L92.18557291666667,119.10012792423368L92.60726041666668,106.55048481225968L92.86495833333333,109.61826824843884L93.14608333333332,103.38412712141871L93.1929375,106.56456927135586L93.26321875,112.82165594100952L93.59119791666667,106.21718087866903L93.82546875,118.67149738669394L93.87232291666666,106.00306487828493L94.05973958333334,116.25850138664245L94.10659375,104.5316247202456L94.62198958333333,110.33124205321074L94.90311458333333,106.42588271461427L94.92654166666667,109.34221793785692L95.11395833333333,102.3079845637083L95.23109375,108.36609115079045L95.81677083333334,101.92190418615938L96.05104166666666,97.35446503646672L96.19160416666666,93.91852265819908L96.26188541666666,101.33728466033936L96.425875,92.94616925120353L97.08183333333334,76.9338012419641L97.36295833333332,79.12761049717665L97.40981249999999,82.85420065522193L97.69093749999999,78.75789556577801L97.83149999999999,67.86764933690428L97.94863541666666,62.3699914444238L98.112625,57.569450680911544L98.39375,81.47123566046356L99.49482291666666,57.84699974413961L99.51825,61.98497100509702L99.56510416666667,67.42865260355175L99.799375,55.11991013083606L100.43190625,53.934159361571076L100.54904166666667,62.38692289758474L100.75988541666666,60.120079659111795L101.39241666666668,65.1980868106708L101.50955208333333,69.89714696891606L101.57983333333334,66.21804628297686L101.65011458333333,70.67474944684655L101.67354166666668,65.46093241088091L101.76724999999999,70.83262088540941L101.86095833333333,69.26009865887464L101.88438541666666,73.36238603964448L102.02494791666666,62.96468674298376L102.35292708333333,70.4091543668881L102.39978125,67.63538931403309L102.51691666666666,58.81630900856108L103.454,73.8415798701346L103.61798958333333,64.18257907889783L103.71169791666667,77.77487494051456L103.8756875,76.09536890946329L104.64878125000001,82.08189998827875L104.97676041666666,70.20245369430631L105.02361458333333,72.40256958194077L105.32816666666666,75.22953081429004L105.58586458333333,81.17308351807297L106.66351041666667,79.26374896243215L106.75721874999999,79.45899806246162L107.01491666666666,76.97058533802628L107.22576041666667,76.20476301349699L107.952,80.36288793981076L108.30340625,72.79863457754254L108.93593750000001,80.63879409879446L109.05307291666668,78.22873200774193L109.26391666666666,81.70713127143681L109.38105208333333,87.9792563445866L109.40447916666666,83.36763049028814L109.61532291666667,89.86564535759389L109.89644791666667,73.18524916395545L110.10729166666667,92.07173717692494L110.57583333333332,89.84029163531959L110.59926041666668,94.73405608534813L110.69296874999999,87.69015183486044L110.81010416666666,85.37326679304242L110.83353125,91.95622934922575L111.02094791666667,94.15073816366494L111.39578125,107.93628196194767L111.63005208333334,99.81407711952924L112.54370833333333,97.1864987462759L112.96539583333333,110.05636191442609L113.15281250000001,102.05078843422234L113.34022916666667,115.1093078866601L113.45736458333334,95.50577590614557L113.52764583333332,102.78996815159917L113.83219791666666,99.96957429647445L113.94933333333333,102.563667101413L114.16017708333334,109.74236581549049L114.2773125,104.55518926680088L114.32416666666667,117.96595162898302L114.5584375,116.95053081214428L114.65214583333334,123.43145947530866L114.76928125,115.79335809722542L115.16754166666666,112.9755928888917L115.23782291666666,115.82818342745304L115.94063541666667,114.60776207894088L115.9640625,118.3065479375422L116.33889583333334,122.2050431162119L116.92457291666666,111.4997942648828L117.01828125,113.91846305429937L117.43996875,113.11175679266454L117.55710416666668,116.6671966060996L117.69766666666668,123.08713218420743L117.90851041666666,121.028409935534L119.24385416666668,122.3571315318346L119.29070833333334,118.90361537784338L119.45469791666666,125.489613597095L119.64211458333332,124.6092373892665L119.71239583333333,122.87433898672461L120.20436458333333,116.77140973210334L120.39178125000001,114.08634030967951L120.53234375000001,114.62416992262007L120.71976041666667,121.42908354252577L120.95403125,113.10844130590557L121.0243125,118.11588625013829L121.04773958333332,114.16826929450036L121.11802083333333,117.81915442496538L121.35229166666666,114.06449710279702L121.37571875,111.59551940560341L121.446,113.96881435960532L121.53970833333334,108.83375285342335L122.59392708333333,111.3952673971653L122.64078125,109.85495669320225L122.96876041666667,106.80817699283362L123.01561458333333,110.16233877763152L123.08589583333334,107.23684992790221L123.76528124999999,114.81756201088427L124.06983333333334,110.69285905659198L124.16354166666666,108.96078432947398L124.56180208333333,119.41320823654533L124.56180208333333,119.19741329401731L124.6789375,118.69018621742725L125.12405208333334,124.91087036877872L125.21776041666668,118.7303960338235L125.26461458333333,131.9452987715602L125.63944791666667,125.77695860937237L126.20169791666667,132.63517440259457L126.24855208333334,133.47597675696016L126.50625000000001,130.2947799310088L126.71709374999999,135.11162254437804L126.76394791666667,125.23158223628997L126.99821874999999,132.743322019279L127.13878125,129.30110056698322L127.41990625,131.87461361140012L127.4901875,137.4189808614552L127.70103125,136.03440476059913L127.72445833333333,129.73833780288697L127.74788541666668,132.31743036210537L128.00558333333333,139.36038914769887L128.07586458333333,137.9206114642322L128.35698958333333,133.6715395987034L128.54440625,137.25038284808397L128.75525000000002,129.35911734551192L128.82553124999998,131.61420798897743L128.94266666666667,139.0344708636403L129.1769375,138.52967740520836L129.48148958333334,136.96062117666006L129.57519791666667,132.31065523698925L129.83289583333334,143.3510819926858L130.65284375,138.54350747913122L131.49621875,129.06189370900393L131.56650000000002,130.05243565589188L131.89447916666666,135.72687004506588L132.12875,137.76123915314673L132.43330208333333,135.95597781166435L132.5504375,138.33292743265628L132.92527083333334,142.85230050385L133.15954166666668,131.1421708613634L133.6749375,134.20004175528885L133.69836458333333,130.33558331280946L133.93263541666667,139.09226717501878L134.02634375,131.48821949213743L134.33089583333333,132.64190713018178L135.15084375,128.24699624478816L135.24455208333333,131.29777827188371L135.33826041666666,135.5505811199546L135.47882291666667,130.55068293586373L135.73652083333334,122.47816799730063L135.87708333333333,128.3946498788893L136.18163541666667,123.89429633915424L136.46276041666667,127.14437219053508L136.53304166666666,127.16864053606986L136.81416666666667,118.50022832900285L137.02501041666667,120.03273788765074L137.72782291666667,118.3706699602306L137.84495833333332,123.4579579308629L138.36035416666667,116.00850859731435L138.68833333333333,126.42806593999268L138.71176041666666,122.00438409149646L139.18030208333332,125.85221422314643L139.46142708333332,121.05640078410505L140.23452083333333,127.7049099199474L141.14817708333334,125.55207363665104L141.19503125,127.31730323135852L141.24188541666666,123.14525071680546L141.405875,119.840431176126L141.5464375,127.54585135057567L141.80413541666667,122.93938527554275L141.8744166666667,124.90052537173034L142.0618333333333,123.93709240481257L142.24925,125.34369826167821L142.530375,123.48936602026225L142.71779166666667,120.10522918254136L143.42060416666666,118.56372286826371L143.56116666666668,119.83953234851361L143.7954375,118.55558254271745L143.86571875,116.7506349429488L143.936,117.0542606063187L145.20106249999998,118.56327345445752L145.2244895833333,113.68559886664151L145.48218749999998,114.89652316868305L145.52904166666667,115.8632207453251L146.0444375,104.82727116867899L146.16157291666667,109.76949175447226L146.27870833333333,119.97075270041825L146.3255625,110.27487877830863L146.67696875000001,119.33495087772607L146.77067708333334,115.45839218050241L147.05180208333334,117.55534004122018L147.05180208333334,117.2872519865632L147.19236458333333,113.60178743153811L147.5671979166667,130.30877111554145L147.66090625,123.23922059983016L147.87175000000002,119.92648120075464L147.91860416666665,115.03767302185298L148.0357395833333,123.57176985740662L148.12944791666666,119.3020249567926L148.22315625,128.24471525773407L148.41057291666667,127.09034077972174L148.76197916666666,126.16886440739034L148.87911458333332,124.86733658611774L149.32422916666667,120.44696174487473L149.4179375,126.58965988159179L149.44136458333332,126.3298563040793L149.6990625,127.15493765473366L149.76934375,118.0468206755817L150.09732291666668,123.3088966988027L150.21445833333334,124.29805648624898L150.28473958333333,124.85022494345904L150.40187500000002,125.35760465115308L150.51901041666667,116.89487133622168L150.68300000000002,124.45372325330973L151.1281145833333,113.13511783108116L151.15154166666665,113.52933853417635L151.54980208333333,111.84269699901343L151.59665625,116.69020998477936L151.87778125,118.3385750308633L151.9480625,111.31509367004037L151.97148958333332,114.13246882110835L152.44003125,117.92879443466663L152.5103125,109.72227786630391L152.53373958333333,111.21227966248989L152.650875,109.43527203425765L152.72115625,110.99530606865882L152.88514583333333,107.09156207591296L152.97885416666668,100.70939845629037L153.16627083333333,102.5101529404521L153.4708229166667,101.82828196287154L153.68166666666664,96.49000910073518L153.79880208333336,93.88139090240001L154.0096458333333,94.46996611766518L154.31419791666667,90.54405245706438L154.59532291666667,90.1550720885396L154.61875,83.57852851822973L154.61875,83.1609086189419L155.3215625,79.14368340037764L155.34498958333333,82.19319350160659L155.46212500000001,82.94493136703967L155.90723958333334,78.79223756417632L156.49291666666667,80.15331271477044L157.07859374999998,75.53958394303918L157.17230208333334,81.52151065021754L157.59398958333333,80.54498532637955L157.80483333333333,85.1667272310704L158.03910416666668,86.0030651256442L158.36708333333334,82.6265428841114L158.39051041666667,87.6986355803907L158.48421875,88.28241563513875L158.50764583333333,86.92274808250367L158.6950625,86.04783267639577L158.78877083333333,95.64791786149145L158.90590625000002,87.64888631999493L159.06989583333333,83.17358971983195L159.2573125,91.90451284348966L159.72585416666666,98.31626569852233L159.86641666666665,100.80189714506268L160.00697916666667,100.82708975672722L160.12411458333332,103.76761700995267L160.28810416666667,113.59933685436845L160.31153125,99.96755617409944L160.73321875,101.65426554530859L161.15490625,112.19739472568035L161.48288541666668,110.58350735008717L161.646875,113.03160850405693L161.99828125000002,116.6795936435461L162.27940625000002,113.60722279474139L162.49024999999997,116.61672658771278L162.88851041666666,128.04766002297401L163.1930625,131.24274627938865L163.35705208333331,132.2029655136168L163.38047916666667,128.5758145198226L163.61475,131.81714800074695L163.68503125,126.47457602918149L163.84902083333333,126.19080936834217L163.96615625,126.94520555883645L164.01301041666667,128.84825256094337L164.10671875,130.09678347110747L164.3175625,126.4401831537485L164.458125,134.46258421316742L165.6060520833333,128.7217298552394L165.77004166666666,123.34899628162384L165.91060416666664,128.29586363658308L165.95745833333334,130.17716918587683L166.14487499999998,126.64798192232848L166.51970833333334,122.30287965387106L166.63684375,129.92338605746627L167.15223958333334,127.3645849555731L167.38651041666668,131.62389158457518L167.4099375,123.03466100245714L167.59735416666666,120.54911435097455L167.78477083333334,121.04723443835974L168.62814583333332,122.8040438838303L168.72185416666665,120.25285737812519L169.0966875,122.23524711579086L169.30753124999998,117.94125082865358L169.35438541666667,120.64388130754233L169.61208333333335,117.04642554298044L170.36175,108.91589382588863L170.45545833333333,107.14816277697683L170.71315625,110.93728929013014L170.97085416666667,105.01579178087412L171.2988333333333,112.40621951445938L171.83765624999998,107.41615755707026L172.16563541666667,104.40145582705736L172.86844791666667,91.86897947452962L173.05586458333335,93.47565503045917L173.40727083333334,93.56415987201035L173.75867708333334,96.69979207366704L174.03980208333334,100.87967117205262L174.11008333333334,94.76238611415029L174.25064583333335,103.45391345396638L174.41463541666664,108.05476609617472L174.48491666666666,104.61602972075343L174.97688541666665,101.27988264597953L174.97688541666665,100.91718450561166L175.21115625,103.14587844759227L175.89054166666668,107.12160496488214L176.10138541666666,104.0695001348853L176.4059375,107.15304697230458L176.42936458333335,107.89141689687968L176.52307291666668,104.4575053602457L176.66363541666666,101.55972753539682L176.80419791666668,100.33344684839248L176.9681875,96.0603186249733L177.0150416666667,101.69432273060083L177.22588541666664,102.41100207939745L177.43672916666665,97.17474615126848L177.64757291666666,100.54902980327607L177.81156249999998,101.2602313913405L177.92869791666666,94.74318851307034L177.97555208333333,94.2408244330436L178.11611458333334,101.99559109136463L178.11611458333334,101.56584549881518L178.16296875,94.49099529199303L178.49094791666667,97.79435211792588L178.7955,94.82128476127981L179.19376041666666,95.36480412259698L179.35775,95.71700887456537L179.7794375,97.11307470574975L180.41196875,92.77925441972911L180.45882291666666,93.96812776699663L180.69309375,94.1758078224957L181.25534375,93.47067756056786L181.60675,90.91872789934278L182.09871875000002,93.07435394003987L182.68439583333335,104.1841091349721L182.8718125,103.58891142569483L182.96552083333336,106.13933053612709L183.03580208333335,102.94670757614075L183.62147916666666,100.19549800865353L183.64490625,102.9232490234077L183.69176041666665,110.55181943699718L183.83232291666667,106.04712439030409L184.16030208333333,104.33218250460924L184.44142708333334,99.04224282540382L184.53513541666666,101.05168218649924L184.79283333333333,95.19002030976117L185.19109375,96.53658702597022L185.58935416666668,93.80093311183155L185.87047916666668,89.21852763444186L185.89390625000001,87.93089772313833L186.05789583333336,88.70835392959417L186.10475,91.47505979388951L186.667,86.01062036529184L186.69042708333333,88.5692773155868L186.90127083333334,88.66701209917665L186.948125,85.9828075863421L187.04183333333333,85.93733199685812L187.06526041666666,85.6453656539321L187.13554166666665,82.36481021903455L187.3698125,86.33213354609906L187.39323958333333,87.80822047330439L188.35375000000002,96.75474775061012L188.42403125,95.8305112991482L189.29083333333332,107.21493888497353L189.99364583333332,113.94557203426956L190.06392708333334,110.07053964808584L190.34505208333334,107.05378587767483L190.76673958333333,111.01491068601608L190.79016666666666,111.80597225949168L190.86044791666666,111.15823977217077L190.95415625,107.98494584560395L191.16500000000002,111.46778413057326L191.3055625,111.16102952957154L191.37584375,106.9151798762381L191.61011458333334,112.0504194520414L191.65696875,101.41186191365124L192.05522916666666,99.18073859326542L192.64090625,92.48120403140784L192.92203125,75.80447098426521L193.20315625,83.5230683106929L193.62484375,75.50521650612355L193.90596875,81.83777925670147L193.92939583333333,75.38359495475889L194.63220833333335,82.39523044601083L194.81962499999997,81.19794966876508L194.88990625,80.95411300063132L195.2413125,83.50217056870461L195.33502083333332,89.9109216786921L195.38187499999998,83.60447580590845L195.45215625,86.4761961095035L196.15496875,92.73571639731527L196.29553125,90.57140734270216L196.52980208333332,96.07196098640561L196.55322916666668,98.1683364804834L196.60008333333334,99.60582045763731L196.6469375,104.56647972874343L196.69379166666667,106.90309658050536L196.88120833333335,109.56362631320953L196.95148958333334,99.55469751730561L196.99834375,105.39061137475073L197.32632291666667,115.1477709248662L197.63087499999997,112.92067112997175L197.86514583333332,105.5213695935905L198.23997916666667,114.15527869164944L198.23997916666667,113.77292081713676L198.26340625,119.55421393811702L198.54453125,113.7577764198184L199.29419791666666,116.32306434363127L199.43476041666668,114.0500141069293L200.18442708333333,118.95467048212885L200.67639583333332,103.99622872546315L200.72324999999998,124.39629156067969L201.23864583333332,115.74137024730445L201.44948958333333,112.79363117441535L201.89460416666665,118.8302422143519L202.24601041666668,112.94407456591726L202.31629166666667,111.61071467995644L202.43342708333333,112.80796153917909L202.64427083333334,109.82326878011226L202.92539583333334,111.18219437599181L203.11281250000002,112.87695079818367L203.18309375,117.86966684088111L203.27680208333334,111.47244785875081L203.81562499999998,115.27373398318886L203.88590624999998,116.69826551526785L204.07332291666665,118.7892268449068L204.14360416666665,121.96832923293113L204.26073958333333,116.34268592000006L204.47158333333334,120.05686208158733L204.659,116.58480972796679L204.68242708333332,116.45325867533683L205.05726041666668,117.36015029773117L205.29153125,112.30307480618357L205.43209375,114.8305526137352L205.97091666666668,106.61475946605206L206.11147916666667,102.70729721002282L206.25204166666668,104.97689204812049L207.0017083333333,89.69017470479012L207.35311458333334,90.64639161229134L207.79822916666666,84.90189530663191L208.07935416666666,81.80708768554031L208.17306250000001,81.56776635423303L208.24334375,84.77758151218295L208.43076041666666,86.45782526023686L208.61817708333334,85.10748516395688L208.78216666666668,82.35008555725217L208.82902083333335,82.2611270621419L209.03986458333335,80.26697624996304L209.27413541666664,82.40497339814901L210.58605208333333,86.677652207762L210.67976041666665,86.68145526610316L210.75004166666668,82.52075680978596L211.03116666666668,82.9795277506113L211.05459375,96.08511269986629L211.49970833333333,96.71991818062962L211.80426041666666,101.3045749668032L211.94482291666668,102.80851707048714L212.20252083333335,115.59765110388398L212.88190625,120.52695740237832L213.04589583333333,117.52601791024208L213.16303125,129.56745880246163L213.20988541666665,121.78852131292223L213.74870833333333,133.11543665081263L214.59208333333333,124.00018840730189L214.84978125,120.06936087310314L214.89663541666667,126.40121982470154L214.9200625,125.57018586099147L214.94348958333333,127.47517466992139L215.06062500000002,131.34971524477004L215.29489583333336,126.52321447432041L215.59944791666666,127.42737569585444L215.99770833333332,132.4001140229404L216.09141666666667,130.42596636489034L216.747375,129.80372327193618L217.37990625,130.91059555858374L217.68445833333334,126.62790245264767L217.75473958333333,117.1851587370038L217.98901041666667,111.04462287425996L218.57468749999998,107.07765568643809L218.62154166666664,118.39447193294762L218.996375,112.73742901012302L219.58205208333334,109.18818771541119L219.81632291666668,99.87345909848808L220.19115625,109.92222461253404L220.30829166666666,108.40163723900913L220.30829166666666,107.76780266165734L220.61284375,104.63311592489481L220.70655208333335,99.56883709318936L220.87054166666667,91.52614033669234L221.36251041666665,100.90961230695247L221.6670625,99.93761927895248L222.53386458333333,90.43710893020034L223.33038541666667,96.21743962727487L223.68179166666667,101.81949295513333L224.08005208333336,105.23470718152821L224.10347916666666,105.02227012328804L224.36117708333333,97.74972447901963L224.80629166666665,112.34241123348475L224.85314583333331,109.83611523136496L224.92342708333334,110.67303397208453L225.0405625,111.09544055238366L225.34511458333333,107.24711012989282L225.36854166666666,114.1661155000329L225.43882291666668,112.65876463502646L225.6028125,110.05389437824488L225.74337500000001,111.7787700049579L225.95421875,114.22282643467187L225.97764583333333,119.58818283826113L226.23534375,113.5886865951121L226.25877083333333,114.00308852195741L226.25877083333333,113.54290574342012L226.30562500000002,118.07454017996787L226.51646875,112.77526456490159L226.93815625000002,104.68163565695285L227.12557291666664,101.85917280241847L227.2895625,99.03255499005319L227.2895625,98.50088149830698L227.40669791666664,100.50279529802502L227.54726041666666,97.89756890200078L227.66439583333332,96.8681526608765L227.75810416666667,98.21927711144089L227.87523958333333,98.24840421378612L228.43748958333333,92.66561208330096L228.53119791666666,93.21379941254854L228.57805208333335,94.39888666048647L228.90603125,91.22987488433718L229.07002083333333,93.95604871101678L229.14030208333335,104.88586455360054L229.30429166666667,99.34198911488056L229.32771875,98.16502523347735L229.42142708333336,100.59678637981415L229.49170833333335,102.33671736903489L229.51513541666668,99.79470992833376L229.56198958333334,97.34253861159085L229.84311458333335,104.27055345661938L229.96024999999997,96.86609214097261L230.00710416666666,97.93028283528984L230.1945208333333,97.15996637269855L230.35851041666666,101.16673636063933L230.78019791666665,103.1417065307498L230.80362499999998,106.38492246195675L230.87390625,107.98974524587392L231.01446875,112.74368688538671L231.57671875,112.95785376280547L231.60014583333333,105.27654082328081L231.647,111.56034641563893L231.97497916666669,114.16999063417316L232.18582291666667,113.83232823461293L232.42009375,119.36447651684284L233.70858333333334,135.27067263424397L233.82571875,137.00742804855108L234.01313541666667,140.81019808650018L234.0365625,138.2092114433646L234.15369791666666,139.44511636942624L234.48167708333332,138.4034769207239L234.8799375,140.07555066496133L234.8799375,139.73288535699248L234.99707291666667,136.5550294563174L235.0205,135.12960757613183L235.48904166666668,142.09248590916394L235.65303125000003,142.6934200040996L235.77016666666665,132.09424977004528L235.95758333333333,137.43665215149522L235.98101041666666,138.90408150330185L236.07471875,133.39122409671546L236.26213541666667,145.45856139957905L236.49640625,139.08448298871517L236.77753125,134.39979347288607L237.03522916666665,139.46694261729718L237.36320833333335,138.98057512491943L237.50377083333333,133.93642240017653L237.99573958333335,133.6712682545185L238.01916666666668,127.10305155888199L238.5111354166667,121.35848317742347L238.60484375000001,121.43890281021595L239.54192708333332,107.50276722908019L239.56535416666665,108.88258632719517L240.57271875,105.22724945619701L240.66642708333333,99.20215358510613L241.18182291666668,105.77319395616651L241.20525,108.27904054448008L241.79092708333332,92.71005741283297L241.9080625,99.97036289051175L242.49373958333334,100.07255789414047L242.610875,103.7574119247496L242.70458333333332,95.72962213940919L243.0325625,92.1263621531427L243.47767708333333,98.64678411446512L243.66509375,93.71901684626937L244.15706250000002,93.2138502895832L244.7193125,92.57427508682012L245.18785416666665,88.7641405981034L245.49240625,91.70965804047883L245.70325,90.0359053540975L245.77353125,95.99798577800392L245.82038541666665,88.14253770783544L246.03122916666666,92.36266478039325L246.10151041666666,96.07202882245183L246.14836458333335,89.14059673659504L246.28892708333333,88.80738183781504L246.546625,103.92317354343832L247.08544791666668,106.77103675752879L247.34314583333335,107.60435170829295L247.7648333333333,102.83239959850907L247.95225,108.80359973087907L248.35051041666665,112.53375976085663L248.49107291666667,113.23465874940156L248.63163541666665,116.24366225153207L249.07675,113.20879625678062L249.14703125,112.41460574567317L249.19388541666666,115.17453224509956L249.4984375,119.62501781135796L249.80298958333333,121.00926321148873L250.74007291666666,116.33901429399847L250.78692708333332,109.0764278292656L250.83378125,117.58520486056804L251.41945833333332,119.34217541664839L251.65372916666666,115.71360834538936L251.84114583333334,110.8211624585092L251.86457291666667,116.62791953533889L251.888,115.64292318522931L252.12227083333335,114.38271599560977L252.19255208333334,115.25855566784739L252.47367708333334,114.32875242084265L252.75480208333335,111.65028005391359L252.77822916666668,105.05060439184308L252.94221875000002,108.43812455236912L253.17648958333334,108.16603417098521L253.41076041666665,115.44792847037314L253.48104166666664,107.32234030514955L253.64503125,106.61978357322515L253.76216666666664,99.03515395857393L253.87930208333333,108.50879275351762L253.92615625,108.13368485644459L254.418125,108.60228778421879L254.48840625,108.00763700306415L254.53526041666666,112.94354035705328L254.60554166666665,114.01216159313918L254.60554166666665,113.57600125446915L255.07408333333333,119.29391006976365L255.30835416666667,108.55514173209667L255.61290625,110.4028260409832L255.89403125,107.46695827618241L256.71397916666666,113.15387449786067L256.8311145833333,112.41326598376035L256.97167708333336,113.13212456554174L257.15909375,111.41188722848892L257.34651041666666,106.64716389738022L257.44021875,110.91433526799084L257.5573541666667,102.1131933569908L257.6276354166667,104.80584345757961L258.0961770833333,102.48288284987211L258.18988541666664,97.40528695434331L258.26016666666663,104.85700031593443L258.3070208333333,104.09726203680039L258.37730208333335,109.27630673944951L258.42415625,107.63487792909145L259.31438541666665,104.98661804124713L259.31438541666665,104.60365812182427L259.3378125,107.60477568358182L259.4315208333333,104.9221017215401L259.57208333333335,104.0849328354001L259.82978125,102.35942124575377L259.87663541666666,100.24871114715934L260.2280416666667,107.73965918198228L260.4857395833333,111.88450944200157L260.5560208333333,108.11405480057L260.5794479166667,108.12012612670661L260.6497291666667,108.10837353169917L261.1182708333333,106.26333482861519L261.3056875,111.58241008967161L261.46967708333335,107.82988960295916L261.5868125,113.14962626546621L261.61023958333334,107.52776481211185L261.8210833333333,95.56163889020682L262.0553541666667,103.30699753686785L262.17248958333334,100.76603731513023L262.33647916666666,99.05983356013894L262.35990625,100.05066381022334L262.8284479166667,94.76853799559176L262.851875,96.47057831324638L263.10957291666665,96.12399123385548L263.36727083333335,97.10016041845084L263.8592395833333,101.31150696277619L263.97637499999996,98.27998189330101" style="fill: none;" fill="none"></path></g></g></g></g></g></g><g transform="translate(48, 177)" clip-path="url(#clip_1)"><clipPath id="clip_1"><rect width="281" height="22"></rect></clipPath><g><g><line x1="0" y1="0" x2="0" y2="5" style="visibility: inherit;" fill="rgb(0, 0, 0)" stroke="rgb(204, 204, 204)" stroke-width="1px"></line><line x1="23.427083333333332" y1="0" x2="23.427083333333332" y2="5" style="visibility: inherit;" fill="rgb(0, 0, 0)" stroke="rgb(204, 204, 204)" stroke-width="1px"></line><line x1="46.854166666666664" y1="0" x2="46.854166666666664" y2="5" style="visibility: inherit;" fill="rgb(0, 0, 0)" stroke="rgb(204, 204, 204)" stroke-width="1px"></line><line x1="70.28125" y1="0" x2="70.28125" y2="5" style="visibility: inherit;" fill="rgb(0, 0, 0)" stroke="rgb(204, 204, 204)" stroke-width="1px"></line><line x1="93.70833333333333" y1="0" x2="93.70833333333333" y2="5" style="visibility: inherit;" fill="rgb(0, 0, 0)" stroke="rgb(204, 204, 204)" stroke-width="1px"></line><line x1="117.13541666666667" y1="0" x2="117.13541666666667" y2="5" style="visibility: inherit;" fill="rgb(0, 0, 0)" stroke="rgb(204, 204, 204)" stroke-width="1px"></line><line x1="140.5625" y1="0" x2="140.5625" y2="5" style="visibility: inherit;" fill="rgb(0, 0, 0)" stroke="rgb(204, 204, 204)" stroke-width="1px"></line><line x1="163.98958333333334" y1="0" x2="163.98958333333334" y2="5" style="visibility: inherit;" fill="rgb(0, 0, 0)" stroke="rgb(204, 204, 204)" stroke-width="1px"></line><line x1="187.41666666666666" y1="0" x2="187.41666666666666" y2="5" style="visibility: inherit;" fill="rgb(0, 0, 0)" stroke="rgb(204, 204, 204)" stroke-width="1px"></line><line x1="210.84375" y1="0" x2="210.84375" y2="5" style="visibility: inherit;" fill="rgb(0, 0, 0)" stroke="rgb(204, 204, 204)" stroke-width="1px"></line><line x1="234.27083333333334" y1="0" x2="234.27083333333334" y2="5" style="visibility: inherit;" fill="rgb(0, 0, 0)" stroke="rgb(204, 204, 204)" stroke-width="1px"></line><line x1="257.69791666666663" y1="0" x2="257.69791666666663" y2="5" style="visibility: inherit;" fill="rgb(0, 0, 0)" stroke="rgb(204, 204, 204)" stroke-width="1px"></line><line x1="281.125" y1="0" x2="281.125" y2="5" style="visibility: inherit;" fill="rgb(0, 0, 0)" stroke="rgb(204, 204, 204)" stroke-width="1px"></line></g><g transform="translate(0, 8)"><text x="0" y="0" dx="0em" dy="0.95em" style="text-anchor: middle; visibility: hidden; font-family: &quot;Helvetica Neue&quot;, sans-serif; font-size: 12px; font-weight: 200;" fill="rgb(50, 49, 63)" stroke="none" stroke-width="1px">-1k</text><text x="23.427083333333332" y="0" dx="0em" dy="0.95em" style="text-anchor: middle; visibility: inherit; font-family: &quot;Helvetica Neue&quot;, sans-serif; font-size: 12px; font-weight: 200;" fill="rgb(50, 49, 63)" stroke="none" stroke-width="1px">0</text><text x="46.854166666666664" y="0" dx="0em" dy="0.95em" style="text-anchor: middle; visibility: inherit; font-family: &quot;Helvetica Neue&quot;, sans-serif; font-size: 12px; font-weight: 200;" fill="rgb(50, 49, 63)" stroke="none" stroke-width="1px">1k</text><text x="70.28125" y="0" dx="0em" dy="0.95em" style="text-anchor: middle; visibility: inherit; font-family: &quot;Helvetica Neue&quot;, sans-serif; font-size: 12px; font-weight: 200;" fill="rgb(50, 49, 63)" stroke="none" stroke-width="1px">2k</text><text x="93.70833333333333" y="0" dx="0em" dy="0.95em" style="text-anchor: middle; visibility: inherit; font-family: &quot;Helvetica Neue&quot;, sans-serif; font-size: 12px; font-weight: 200;" fill="rgb(50, 49, 63)" stroke="none" stroke-width="1px">3k</text><text x="117.13541666666667" y="0" dx="0em" dy="0.95em" style="text-anchor: middle; visibility: inherit; font-family: &quot;Helvetica Neue&quot;, sans-serif; font-size: 12px; font-weight: 200;" fill="rgb(50, 49, 63)" stroke="none" stroke-width="1px">4k</text><text x="140.5625" y="0" dx="0em" dy="0.95em" style="text-anchor: middle; visibility: inherit; font-family: &quot;Helvetica Neue&quot;, sans-serif; font-size: 12px; font-weight: 200;" fill="rgb(50, 49, 63)" stroke="none" stroke-width="1px">5k</text><text x="163.98958333333334" y="0" dx="0em" dy="0.95em" style="text-anchor: middle; visibility: inherit; font-family: &quot;Helvetica Neue&quot;, sans-serif; font-size: 12px; font-weight: 200;" fill="rgb(50, 49, 63)" stroke="none" stroke-width="1px">6k</text><text x="187.41666666666666" y="0" dx="0em" dy="0.95em" style="text-anchor: middle; visibility: inherit; font-family: &quot;Helvetica Neue&quot;, sans-serif; font-size: 12px; font-weight: 200;" fill="rgb(50, 49, 63)" stroke="none" stroke-width="1px">7k</text><text x="210.84375" y="0" dx="0em" dy="0.95em" style="text-anchor: middle; visibility: inherit; font-family: &quot;Helvetica Neue&quot;, sans-serif; font-size: 12px; font-weight: 200;" fill="rgb(50, 49, 63)" stroke="none" stroke-width="1px">8k</text><text x="234.27083333333334" y="0" dx="0em" dy="0.95em" style="text-anchor: middle; visibility: inherit; font-family: &quot;Helvetica Neue&quot;, sans-serif; font-size: 12px; font-weight: 200;" fill="rgb(50, 49, 63)" stroke="none" stroke-width="1px">9k</text><text x="257.69791666666663" y="0" dx="0em" dy="0.95em" style="text-anchor: middle; visibility: inherit; font-family: &quot;Helvetica Neue&quot;, sans-serif; font-size: 12px; font-weight: 200;" fill="rgb(50, 49, 63)" stroke="none" stroke-width="1px">10k</text><text x="281.125" y="0" dx="0em" dy="0.95em" style="text-anchor: middle; visibility: hidden; font-family: &quot;Helvetica Neue&quot;, sans-serif; font-size: 12px; font-weight: 200;" fill="rgb(50, 49, 63)" stroke="none" stroke-width="1px">11k</text></g><line x1="0" y1="0" x2="281.125" y2="0" fill="rgb(0, 0, 0)" stroke="rgb(204, 204, 204)" stroke-width="1px"></line></g></g></g></g></svg>