<svg viewBox="0 0 330 200" xmlns="http://www.w3.org/2000/svg"><g><g><g><g><g><line x1="48.875" y1="177.828125" x2="43.875" y2="177.828125" style="visibility: inherit;" fill="rgb(0, 0, 0)" stroke="rgb(204, 204, 204)" stroke-width="1px"></line><line x1="48.875" y1="158.06944444444446" x2="43.875" y2="158.06944444444446" style="visibility: inherit;" fill="rgb(0, 0, 0)" stroke="rgb(204, 204, 204)" stroke-width="1px"></line><line x1="48.875" y1="138.31076388888889" x2="43.875" y2="138.31076388888889" style="visibility: inherit;" fill="rgb(0, 0, 0)" stroke="rgb(204, 204, 204)" stroke-width="1px"></line><line x1="48.875" y1="118.55208333333334" x2="43.875" y2="118.55208333333334" style="visibility: inherit;" fill="rgb(0, 0, 0)" stroke="rgb(204, 204, 204)" stroke-width="1px"></line><line x1="48.875" y1="98.79340277777779" x2="43.875" y2="98.79340277777779" style="visibility: inherit;" fill="rgb(0, 0, 0)" stroke="rgb(204, 204, 204)" stroke-width="1px"></line><line x1="48.875" y1="79.03472222222221" x2="43.875" y2="79.03472222222221" style="visibility: inherit;" fill="rgb(0, 0, 0)" stroke="rgb(204, 204, 204)" stroke-width="1px"></line><line x1="48.875" y1="59.27604166666667" x2="43.875" y2="59.27604166666667" style="visibility: inherit;" fill="rgb(0, 0, 0)" stroke="rgb(204, 204, 204)" stroke-width="1px"></line><line x1="48.875" y1="39.517361111111114" x2="43.875" y2="39.517361111111114" style="visibility: inherit;" fill="rgb(0, 0, 0)" stroke="rgb(204, 204, 204)" stroke-width="1px"></line><line x1="48.875" y1="19.75868055555557" x2="43.875" y2="19.75868055555557" style="visibility: inherit;" fill="rgb(0, 0, 0)" stroke="rgb(204, 204, 204)" stroke-width="1px"></line><line x1="48.875" y1="0" x2="43.875" y2="0" style="visibility: inherit;" fill="rgb(0, 0, 0)" stroke="rgb(204, 204, 204)" stroke-width="1px"></line></g><g transform="translate(38.875, 0)"><text x="0" y="177.828125" dx="0em" dy="0.3em" style="text-anchor: end; visibility: hidden; font-family: &quot;Helvetica Neue&quot;, sans-serif; font-size: 12px; font-weight: 200;" fill="rgb(50, 49, 63)" stroke="none" stroke-width="1px">-3</text><text x="0" y="158.06944444444446" dx="0em" dy="0.3em" style="text-anchor: end; visibility: inherit; font-family: &quot;Helvetica Neue&quot;, sans-serif; font-size: 12px; font-weight: 200;" fill="rgb(50, 49, 63)" stroke="none" stroke-width="1px">-2.5</text><text x="0" y="138.31076388888889" dx="0em" dy="0.3em" style="text-anchor: end; visibility: hidden; font-family: &quot;Helvetica Neue&quot;, sans-serif; font-size: 12px; font-weight: 200;" fill="rgb(50, 49, 63)" stroke="none" stroke-width="1px">-2</text><text x="0" y="118.55208333333334" dx="0em" dy="0.3em" style="text-anchor: end; visibility: inherit; font-family: &quot;Helvetica Neue&quot;, sans-serif; font-size: 12px; font-weight: 200;" fill="rgb(50, 49, 63)" stroke="none" stroke-width="1px">-1.5</text><text x="0" y="98.79340277777779" dx="0em" dy="0.3em" style="text-anchor: end; visibility: hidden; font-family: &quot;Helvetica Neue&quot;, sans-serif; font-size: 12px; font-weight: 200;" fill="rgb(50, 49, 63)" stroke="none" stroke-width="1px">-1</text><text x="0" y="79.03472222222221" dx="0em" dy="0.3em" style="text-anchor: end; visibility: inherit; font-family: &quot;Helvetica Neue&quot;, sans-serif; font-size: 12px; font-weight: 200;" fill="rgb(50, 49, 63)" stroke="none" stroke-width="1px">-0.5</text><text x="0" y="59.27604166666667" dx="0em" dy="0.3em" style="text-anchor: end; visibility: hidden; font-family: &quot;Helvetica Neue&quot;, sans-serif; font-size: 12px; font-weight: 200;" fill="rgb(50, 49, 63)" stroke="none" stroke-width="1px">0</text><text x="0" y="39.517361111111114" dx="0em" dy="0.3em" style="text-anchor: end; visibility: inherit; font-family: &quot;Helvetica Neue&quot;, sans-serif; font-size: 12px; font-weight: 200;" fill="rgb(50, 49, 63)" stroke="none" stroke-width="1px">0.5</text><text x="0" y="19.75868055555557" dx="0em" dy="0.3em" style="text-anchor: end; visibility: hidden; font-family: &quot;Helvetica Neue&quot;, sans-serif; font-size: 12px; font-weight: 200;" fill="rgb(50, 49, 63)" stroke="none" stroke-width="1px">1</text><text x="0" y="0" dx="0em" dy="0.3em" style="text-anchor: end; visibility: hidden; font-family: &quot;Helvetica Neue&quot;, sans-serif; font-size: 12px; font-weight: 200;" fill="rgb(50, 49, 63)" stroke="none" stroke-width="1px">1.5</text></g><line x1="48.875" y1="0" x2="48.875" y2="177.828125" fill="rgb(0, 0, 0)" stroke="rgb(204, 204, 204)" stroke-width="1px"></line></g></g><g transform="translate(48, 0)" clip-path="url(#clip_0)"><clipPath id="clip_0"><rect width="281" height="177"></rect></clipPath><g><g><g><line x1="0" y1="0" x2="0" y2="177.828125" fill="rgb(0, 0, 0)" stroke="rgb(60, 60, 60)" stroke-width="1px" opacity="0.25"></line><line x1="23.427083333333332" y1="0" x2="23.427083333333332" y2="177.828125" fill="rgb(0, 0, 0)" stroke="rgb(60, 60, 60)" stroke-width="1px" opacity="0.25"></line><line x1="46.854166666666664" y1="0" x2="46.854166666666664" y2="177.828125" fill="rgb(0, 0, 0)" stroke="rgb(60, 60, 60)" stroke-width="1px" opacity="0.25"></line><line x1="70.28125" y1="0" x2="70.28125" y2="177.828125" fill="rgb(0, 0, 0)" stroke="rgb(60, 60, 60)" stroke-width="1px" opacity="0.25"></line><line x1="93.70833333333333" y1="0" x2="93.70833333333333" y2="177.828125" fill="rgb(0, 0, 0)" stroke="rgb(60, 60, 60)" stroke-width="1px" opacity="0.25"></line><line x1="117.13541666666667" y1="0" x2="117.13541666666667" y2="177.828125" fill="rgb(0, 0, 0)" stroke="rgb(60, 60, 60)" stroke-width="1px" opacity="0.25"></line><line x1="140.5625" y1="0" x2="140.5625" y2="177.828125" fill="rgb(0, 0, 0)" stroke="rgb(60, 60, 60)" stroke-width="1px" opacity="0.25"></line><line x1="163.98958333333334" y1="0" x2="163.98958333333334" y2="177.828125" fill="rgb(0, 0, 0)" stroke="rgb(60, 60, 60)" stroke-width="1px" opacity="0.25"></line><line x1="187.41666666666666" y1="0" x2="187.41666666666666" y2="177.828125" fill="rgb(0, 0, 0)" stroke="rgb(60, 60, 60)" stroke-width="1px" opacity="0.25"></line><line x1="210.84375" y1="0" x2="210.84375" y2="177.828125" fill="rgb(0, 0, 0)" stroke="rgb(60, 60, 60)" stroke-width="1px" opacity="0.25"></line><line x1="234.27083333333334" y1="0" x2="234.27083333333334" y2="177.828125" fill="rgb(0, 0, 0)" stroke="rgb(60, 60, 60)" stroke-width="1px" opacity="0.25"></line><line x1="257.69791666666663" y1="0" x2="257.69791666666663" y2="177.828125" fill="rgb(0, 0, 0)" stroke="rgb(60, 60, 60)" stroke-width="1px" opacity="0.25"></line><line x1="281.125" y1="0" x2="281.125" y2="177.828125" fill="rgb(0, 0, 0)" stroke="rgb(60, 60, 60)" stroke-width="1px" opacity="0.25"></line></g><g><line x1="0" y1="177.828125" x2="281.125" y2="177.828125" fill="rgb(0, 0, 0)" stroke="rgb(60, 60, 60)" stroke-width="1px" opacity="0.25"></line><line x1="0" y1="158.06944444444446" x2="281.125" y2="158.06944444444446" fill="rgb(0, 0, 0)" stroke="rgb(60, 60, 60)" stroke-width="1px" opacity="0.25"></line><line x1="0" y1="138.31076388888889" x2="281.125" y2="138.31076388888889" fill="rgb(0, 0, 0)" stroke="rgb(60, 60, 60)" stroke-width="1px" opacity="0.25"></line><line x1="0" y1="118.55208333333334" x2="281.125" y2="118.55208333333334" fill="rgb(0, 0, 0)" stroke="rgb(60, 60, 60)" stroke-width="1px" opacity="0.25"></line><line x1="0" y1="98.79340277777779" x2="281.125" y2="98.79340277777779" fill="rgb(0, 0, 0)" stroke="rgb(60, 60, 60)" stroke-width="1px" opacity="0.25"></line><line x1="0" y1="79.03472222222221" x2="281.125" y2="79.03472222222221" fill="rgb(0, 0, 0)" stroke="rgb(60, 60, 60)" stroke-width="1px" opacity="0.25"></line><line x1="0" y1="59.27604166666667" x2="281.125" y2="59.27604166666667" fill="rgb(0, 0, 0)" stroke="rgb(60, 60, 60)" stroke-width="1px" opacity="0.25"></line><line x1="0" y1="39.517361111111114" x2="281.125" y2="39.517361111111114" fill="rgb(0, 0, 0)" stroke="rgb(60, 60, 60)" stroke-width="1px" opacity="0.25"></line><line x1="0" y1="19.75868055555557" x2="281.125" y2="19.75868055555557" fill="rgb(0, 0, 0)" stroke="rgb(60, 60, 60)" stroke-width="1px" opacity="0.25"></line><line x1="0" y1="0" x2="281.125" y2="0" fill="rgb(0, 0, 0)" stroke="rgb(60, 60, 60)" stroke-width="1px" opacity="0.25"></line></g></g></g><g><g><line x1="0" y1="59.27604166666667" x2="281.125" y2="59.27604166666667" fill="rgb(0, 0, 0)" stroke="rgb(153, 153, 153)" stroke-width="1.5px"></line></g></g><g><g><line x1="23.427083333333332" y1="0" x2="23.427083333333332" y2="177.828125" fill="rgb(0, 0, 0)" stroke="rgb(153, 153, 153)" stroke-width="1.5px"></line></g></g><g><g><g><g><g><path stroke="rgb(255, 112, 67)" stroke-width="2px" d="M23.63792708333333,8.032174160910984L23.919052083333334,-14.779121408239007L29.70554166666667,-1.0886830765126376L30.01009375,6.227775504070422L30.197510416666663,18.224964216478526L30.29121875,30.03896908393679L30.29121875,37.643336298819634L30.85346875,38.49592279625327L30.99403125,38.461698295474264L31.158020833333335,45.19826733808523L31.275156250000002,48.563058915847904L31.79055208333333,67.21367706429562L31.884260416666667,67.30308189461691L32.37622916666667,77.45582450714608L32.42308333333333,84.49902089795674L32.44651041666667,94.03281532969758L32.6105,99.42715844958468L32.63392708333333,87.56139875600374L32.727635416666665,99.90011000940966L32.821343750000004,108.17894178841188L32.891625000000005,101.60840341933536L33.21960416666667,117.4333723984382L34.48466666666666,120.91189191766091L34.789218749999996,121.05828218019931L34.812645833333335,128.3508659799177L34.882927083333335,135.0155963998228L34.953208333333336,133.22430400009017L35.16405208333333,147.36113255813842L35.18747916666667,162.65295119233937L35.30461458333333,172.521726243805L35.86686458333333,180.76862198443396L35.91371875,181.03032501901777L36.218270833333335,161.429159979785L36.28855208333333,158.39873775321558L36.35883333333333,151.19677459450952L36.967937500000005,164.766611461701L37.01479166666666,168.21349791247252L37.03821875,175.6488328344502L37.2490625,188.0862564007595L43.55094791666667,181.96327776642863L43.7149375,168.7099688035846L43.73836458333333,172.94827921551732L43.76179166666667,165.78568344861958L44.277187500000004,177.93856316735761L44.81601041666667,147.62788305787495L45.02685416666667,150.30527446102715L45.1205625,136.70241926900846L45.28455208333333,142.23337439638425L45.30797916666667,141.99332501820618L45.4016875,141.63149269023674L45.87022916666666,146.70812236957568L46.08107291666666,144.74193591689755L46.19820833333333,130.18105515827153L46.221635416666665,117.97799733423837L46.854166666666664,115.48423306100423L46.994729166666666,97.94155514804072L47.27585416666666,91.29547916426122L47.744395833333336,81.20076632055293L47.83810416666667,87.29747386208761L47.88495833333334,99.01892612188016L47.97866666666666,91.77370132979789L48.58777083333334,88.1197283651553L48.68147916666666,80.48753341121872L49.032885416666666,102.16751224348984L49.079739583333335,90.8786223554448L49.17344791666667,86.28818361172756L49.26715625,85.31367158493211L49.31401041666667,91.03680936009174L49.548281249999995,82.44118273976403L49.618562499999996,83.87666490699291L49.618562499999996,85.27290078830652L49.852833333333336,86.94549205840454L49.92311458333334,75.03461160127814L50.321374999999996,78.00850254920154L50.43851041666667,80.37520109523885L50.57907291666667,85.82526833849546L50.883624999999995,76.63698608102837L51.000760416666665,82.80968016836506L51.39902083333333,100.34381901527854L51.42244791666667,97.54306093023797L51.445875,101.12073630574625L51.96127083333333,108.94430092861225L52.1486875,107.90926727686308L52.17211458333333,110.69880229486746L52.24239583333333,105.09082215058042L52.52352083333333,90.46760204127769L52.54694791666667,87.87092304062317L52.66408333333333,91.36734835247744L52.68751041666667,100.04431922665235L52.73436458333333,102.96434596719277L52.89835416666667,110.02975223503337L52.96863541666667,108.15215187213582L53.08577083333333,103.1717090399569L53.24976041666667,89.89549923364355L53.32004166666667,87.01757574383836L54.86622916666666,84.27042995839633L55.077072916666665,83.20351342007113L55.5221875,69.05182550631551L55.686177083333334,65.36951127721589L56.0844375,70.69478875094882L57.068375,62.76953988824329L57.3495,57.17778038969395L58.16944791666667,52.40675463281856L58.263156249999994,49.39730428798336L58.68484375,58.21888843827118L59.012822916666664,57.617216270581906L59.036249999999995,61.61941427242387L59.715635416666665,52.11578772797496L60.441874999999996,57.29946564618666L60.62929166666667,55.182873002261104L60.84013541666667,58.127292085960946L60.8635625,55.97986962106353L61.26182291666667,50.255730139950074L61.37895833333333,43.75023891857282L61.40238541666667,36.95040907957761L61.4258125,49.28252300354339L61.44923958333333,48.18900855885116L61.44923958333333,47.844459546311356L62.128625,39.38192879851215L62.59716666666667,47.931168336179525L62.972,47.93733813806111L63.276552083333335,50.32768171528551L63.34683333333333,61.19953633645916L63.60453125,44.52297003447856L63.815375,43.43754947312581L64.00279166666667,40.106311648687495L64.19020833333333,52.80890078951299L64.5181875,56.615518971770626L64.56504166666666,50.582212123964L65.59583333333333,46.941487144148624L65.80667708333334,56.454213807910435L65.83010416666667,46.164642211090694L65.85353125,56.88393271543059L65.9238125,67.80602715756976L66.25179166666666,66.76880146488107L66.41578125,58.40926374499733L67.07173958333334,61.33647507084251L67.11859375,62.83891981037165L67.23572916666667,58.5324814824431L67.84483333333334,66.96066245121108L68.10253125,63.06546094277907L68.14938541666666,63.101861111875834L68.17281249999999,62.69497174822675L68.28994791666666,71.48955600740543L68.68820833333334,76.30034076143522L68.82877083333332,79.48359337389333L69.437875,77.3144815136716L69.76585416666667,74.6503295540977L70.09383333333334,77.93753269430013L70.53894791666667,91.3357427077453L70.65608333333334,86.4185265763776L70.7029375,88.90760765160181L71.35889583333334,92.95533593771559L71.42917708333333,83.5657013032167L71.5463125,81.37982088826568L72.41311458333334,85.48665113591305L72.55367708333333,89.06268572043271L72.57710416666666,96.43821407594814L72.62395833333333,93.51841453696079L72.64738541666667,96.05615756005915L72.92851041666667,88.1733464005956L72.99879166666666,88.73773031668743L73.02221875,81.77537899944976L73.35019791666667,73.73139907631472L73.39705208333334,88.9250453562662L73.84216666666667,92.5033837876229L73.98272916666666,90.1298841166402L74.00615624999999,101.43972383109163L74.59183333333333,97.52036279158915L74.87295833333333,85.35439235130391L74.96666666666667,90.05834429094193L75.34150000000001,87.78048398960696L76.0443125,83.12083088222252L76.23172916666667,79.06348028916811L76.48942708333334,77.51366563745556L77.05167708333333,71.06294729115993L77.07510416666666,67.35237899255216L77.63735416666667,70.89323913793308L77.96533333333333,67.66576817568136L78.05904166666667,80.51904266223242L78.10589583333334,85.51522893048285L78.19960416666667,87.98351803738714L78.62129166666666,78.78438179387041L78.69157291666666,73.89833561725699L79.06640625,69.78402295444612L79.16011458333334,68.00726268737371L79.51152083333334,64.00971442285244L79.65208333333334,65.21468829402994L79.67551041666667,64.8158552011563L80.12062499999999,67.72467503259693L80.26118749999999,64.54165438393572L80.75315625,66.02256764399068L81.54967708333334,69.75333334760104L81.64338541666666,73.40220780906155L81.69023958333334,66.69870968738937L82.58046875000001,61.712984703170065L82.60389583333334,57.98298240401223L82.60389583333334,55.97286844890954L83.23642708333333,47.967779947999304L83.56440625,51.46099286038172L84.33749999999999,65.12398921074232L84.78261458333333,67.18128601840526L85.83683333333333,61.202172092386434L86.02425,56.70903787404929L86.18823958333333,56.721919917863744L86.91447916666667,59.27631560219456L87.17217708333332,55.09459051524807L88.01555208333333,48.03732946022808L88.03897916666666,41.504814773907356L88.4138125,30.43121383163603L88.6949375,37.82455474380615L88.85892708333333,40.3868221718044L89.37432291666667,35.71133165625557L89.70230208333334,33.28804285086554L89.72572916666667,29.173304293100216L89.77258333333334,26.560245492848935L89.93657291666668,25.885239988011705L90.42854166666666,32.12483959529024L90.45196874999999,33.58871840996807L91.0845,28.279914009617045L91.45933333333332,28.549479747971986L91.64675,34.17410875435999L91.69360416666666,36.17925942602224L92.09186458333333,36.47726622569044L92.11529166666666,39.26673489122081L92.18557291666667,35.52966229735242L92.60726041666668,36.95350856752253L92.86495833333333,31.310615494873474L93.14608333333332,33.5730181508751L93.1929375,31.898237471192544L93.26321875,29.880576893335274L93.59119791666667,33.83470242184475L93.82546875,24.174621484450938L93.87232291666666,31.258753764361273L94.05973958333334,31.775704854201678L94.10659375,33.37243134867765L94.62198958333333,30.558457085705186L94.92654166666667,30.46304378926405L95.11395833333333,35.782652309157356L95.23109375,30.329272977879384L95.81677083333334,34.082203116108104L96.05104166666666,34.79914238832407L96.19160416666666,32.75125518327826L96.26188541666666,34.542393320118634L96.425875,33.46283137880013L97.08183333333334,38.851880497065025L97.36295833333332,37.157574262433L97.40981249999999,40.83926891657478L97.69093749999999,39.597262529767136L97.83149999999999,46.327297034802L97.94863541666666,57.49369341161368L98.112625,53.89646883548211L98.39375,40.38322036600323L99.49482291666666,39.40343025962571L99.51825,41.161688466294294L99.56510416666667,39.68740184554213L99.799375,37.89704623945141L100.43190625,45.87777016338262L100.54904166666667,47.438582397658934L100.75988541666666,51.33384724330132L101.39241666666668,45.90741374010247L101.50955208333333,45.83531315921388L101.65011458333333,40.376049261250614L101.67354166666668,42.49781223634062L101.76724999999999,36.21662812894755L101.86095833333333,42.627042389542254L101.88438541666666,40.56181856789016L102.02494791666666,42.96850242957831L102.35292708333333,45.02924510295739L102.39978125,41.04143139519621L102.51691666666666,43.309507289734114L103.454,43.29618390569155L103.61798958333333,49.226596932293035L103.71169791666667,47.773726293685L103.8756875,43.79405965064484L104.64878125000001,44.793559358196575L104.97676041666666,49.36281356197887L105.02361458333333,49.8350326975787L105.32816666666666,50.576837865978064L105.58586458333333,50.59822832834233L106.66351041666667,46.493474898983095L106.75721874999999,52.05821618482413L107.01491666666666,53.14677913480632L107.22576041666667,50.86473974863203L107.952,51.61629138887962L108.30340625,56.45899584128418L108.93593750000001,60.68997657173581L109.05307291666668,63.68009115531271L109.26391666666666,67.36429073593222L109.38105208333333,64.10337734777451L109.40447916666666,60.76731547897292L109.61532291666667,57.75716551155985L109.89644791666667,63.25773564037367L110.10729166666667,51.493809844560204L110.57583333333332,49.26042317347799L110.59926041666668,49.62518638569358L110.69296874999999,51.65372347701536L110.81010416666666,53.92181075253123L110.83353125,52.313083664571124L111.02094791666667,51.085638481143704L111.39578125,48.566117855235774L111.63005208333334,49.25067284941167L112.54370833333333,54.52886639794072L112.96539583333333,48.03994129389076L113.15281250000001,51.59462985138492L113.34022916666667,44.67825762971478L113.45736458333334,52.15912792907697L113.52764583333332,53.46379542876541L113.83219791666666,56.49610705724248L113.94933333333333,56.35808303634856L114.16017708333334,56.895246746556495L114.32416666666667,51.88468768823468L114.5584375,51.79520237091842L114.65214583333334,49.86920238686466L114.76928125,52.963131213105896L115.16754166666666,50.9254507237179L115.23782291666666,50.330442686355966L115.94063541666667,59.240165882990865L115.9640625,55.370077211868434L116.33889583333334,54.63814615659615L116.92457291666666,63.289183538207936L117.01828125,62.144137833147965L117.43996875,58.67802964930186L117.55710416666668,61.59688264797795L117.69766666666668,62.32582608861131L117.90851041666666,60.69240639409861L119.24385416666668,60.25159838346174L119.29070833333334,56.88811425363208L119.45469791666666,56.39757470783702L119.64211458333332,58.38364635339974L119.71239583333333,54.92009343033658L120.20436458333333,53.415605895340875L120.39178125000001,53.754448692241226L120.53234375000001,56.39639616457292L120.95403125,54.82299396993652L121.0243125,51.50883091864813L121.04773958333332,50.975770534177926L121.11802083333333,48.19184268596456L121.37571875,45.58748725900659L121.446,52.01845510644813L121.53970833333334,53.806804050397815L122.59392708333333,48.50229421089276L122.64078125,50.8524488679049L122.96876041666667,51.60799918948477L123.01561458333333,49.705441911624405L123.08589583333334,49.85119073864213L123.76528124999999,46.359760983114455L124.06983333333334,48.47462349334856L124.16354166666666,52.58643663644493L124.56180208333333,47.1635855913012L124.56180208333333,44.038277293699565L124.6789375,41.277134708173946L125.12405208333334,45.98250174419553L125.21776041666668,44.48506140167066L125.26461458333333,41.48425071675973L126.20169791666667,44.95082250976202L126.50625000000001,42.51193143407025L126.71709374999999,41.408414252477L126.76394791666667,41.511973165862685L126.99821874999999,34.40221790078854L127.13878125,39.329113783725205L127.41990625,38.27632564674437L127.4901875,34.360385661546104L127.70103125,30.512802030445044L127.72445833333333,33.905999671234554L127.74788541666668,37.96666971990297L128.00558333333333,38.28993368535538L128.07586458333333,34.450843146114664L128.35698958333333,38.875062624349994L128.54440625,36.729108664566496L128.75525000000002,38.80688254161464L128.82553124999998,46.62528444271226L128.94266666666667,42.7818273845437L129.1769375,37.64709177638497L129.48148958333334,42.59946660944399L129.57519791666667,43.736503065451785L129.83289583333334,44.19652420099729L130.65284375,42.76311751030909L131.49621875,46.90485130376766L131.56650000000002,43.078188413477164L131.89447916666666,39.24612255473045L132.12875,38.14586254438558L132.43330208333333,39.20292705550935L132.5504375,40.802220199039425L132.92527083333334,38.68821266702665L133.15954166666668,41.14712754336108L133.6749375,40.72592759498224L133.69836458333333,43.44617134419707L133.93263541666667,39.31612408842554L134.02634375,46.04319470602485L134.33089583333333,49.33763483650415L135.15084375,45.99741513489508L135.24455208333333,49.81043155400582L135.33826041666666,48.88640435647807L135.47882291666667,47.928438936343866L135.73652083333334,50.294359825189886L135.87708333333333,48.43938349678939L136.18163541666667,48.622899058430335L136.46276041666667,45.13045456354621L136.53304166666666,47.06769760489678L136.81416666666667,49.20476827181838L137.02501041666667,52.47233431863597L137.72782291666667,49.20910079326916L137.84495833333332,47.28964821260516L138.36035416666667,48.0787847898749L138.68833333333333,47.88609038168278L138.71176041666666,49.169825847524265L139.18030208333332,43.45763759134218L139.46142708333332,45.07153591603836L140.23452083333333,43.46738129146709L141.14817708333334,43.94863931973134L141.19503125,42.93738791562066L141.24188541666666,45.1552207463003L141.405875,48.062972847204406L141.5464375,45.00785073950746L141.80413541666667,47.2571695796872L141.8744166666667,47.76153128524638L142.0618333333333,49.93268843301148L142.24925,49.52379636484525L142.530375,49.60567583022069L142.71779166666667,49.018689829374665L143.42060416666666,48.26140397286332L143.56116666666668,47.536705814774336L143.7954375,49.10576372522641L143.86571875,47.22852407171115L143.936,47.41445917203296L145.20106249999998,48.09965879806441L145.2244895833333,51.64280274563171L145.48218749999998,52.30241297515116L145.52904166666667,49.6177065673715L146.0444375,56.641231812895796L146.16157291666667,58.97845923342659L146.27870833333333,55.769044994278204L146.3255625,55.0800136553361L146.67696875000001,53.61988089014443L146.77067708333334,54.10587366571967L147.05180208333334,52.681364339827496L147.05180208333334,51.98599054218339L147.19236458333333,54.557004398245965L147.5671979166667,47.45301544667976L147.66090625,48.612044971529144L147.87175000000002,52.86257274131587L147.91860416666665,56.48354195199113L148.0357395833333,59.18415549349474L148.12944791666666,55.31734498180626L148.22315625,46.969664175999895L148.41057291666667,42.10854067866899L148.76197916666666,43.069836644122404L148.87911458333332,39.51145698064593L149.32422916666667,41.83776097887505L149.4179375,37.22139665421099L149.44136458333332,35.785396780852636L149.6990625,35.081510011292664L149.76934375,44.28234105179274L150.09732291666668,40.62654087531968L150.21445833333334,40.60063726027519L150.28473958333333,39.271001584581114L150.40187500000002,38.03472797640592L150.51901041666667,43.970352259686166L150.68300000000002,41.48267164390586L151.1281145833333,49.562654604217556L151.15154166666665,51.40957769568166L151.54980208333333,51.28670516682243L151.59665625,41.35157458428088L151.87778125,40.509794339697834L151.9480625,44.53922104944465L151.97148958333332,41.307029484203866L152.44003125,34.8166978426392L152.5103125,37.14290601186312L152.53373958333333,38.16379907134586L152.650875,41.52272623090661L152.72115625,35.99116221635106L152.88514583333333,38.14472347754045L152.97885416666668,39.29230161976167L153.16627083333333,41.585653387832735L153.4708229166667,44.014741808504056L153.68166666666664,43.390161508684116L153.79880208333336,43.5386044882591L154.0096458333333,45.13787967662478L154.31419791666667,45.69583089967847L154.59532291666667,44.68167431710995L154.61875,48.3744888151881L154.61875,50.78660997620405L155.3215625,51.456264884664364L155.34498958333333,53.057427391909485L155.46212500000001,49.472290114033655L155.90723958333334,50.123908642544734L156.49291666666667,50.22539320108159L157.07859374999998,55.11768774532729L157.17230208333334,51.63809599981775L157.59398958333333,53.3700323153235L157.80483333333333,51.99412345216193L158.03910416666668,55.804161889970075L158.36708333333334,53.14638246795059L158.39051041666667,55.575317563815034L158.48421875,58.27336975732301L158.50764583333333,55.41578894717142L158.6950625,53.66262102310114L158.78877083333333,49.93567362206399L158.90590625000002,51.616735357042785L159.06989583333333,55.74652584357193L159.2573125,56.01569804162992L159.72585416666666,49.89924285842373L159.86641666666665,49.802795535856205L160.00697916666667,50.08838858166027L160.12411458333332,45.98775243949771L160.28810416666667,43.45520262269639L160.31153125,45.95281786695861L160.73321875,44.832525572201746L161.15490625,43.6377394109428L161.48288541666668,46.290071200067075L161.646875,50.11505312168653L161.99828125000002,50.5863756948024L162.27940625000002,49.24678351395522L162.49024999999997,45.63629671846411L162.88851041666666,41.56395495185009L163.1930625,41.023705243229045L163.35705208333331,37.594888016080375L163.38047916666667,35.991025118725815L163.61475,36.44587399054075L163.68503125,40.43875757283405L163.84902083333333,41.36139782921333L163.96615625,45.05201471640186L164.01301041666667,42.2514581538847L164.10671875,46.40167384424805L164.3175625,46.38178286897539L164.458125,40.04552761284947L165.6060520833333,47.720314445175035L165.77004166666666,54.46210867985724L165.91060416666664,53.82003476382742L165.95745833333334,52.69442026843829L166.14487499999998,55.8339774517694L166.51970833333334,56.037401590918904L166.63684375,53.081681896089094L167.15223958333334,54.2465948018463L167.38651041666668,52.74075798311024L167.4099375,54.577089731271855L167.59735416666666,58.67827086974397L167.78477083333334,58.6454697032524L168.62814583333332,58.70305049133151L168.72185416666665,61.46561425686323L169.0966875,59.60082611497509L169.30753124999998,59.8505869176695L169.35438541666667,54.14296662973287L169.61208333333335,56.35586385395945L170.36175,58.10377489010585L170.45545833333333,60.40087435233649L170.71315625,59.77942914121182L170.97085416666667,61.613794327395155L171.2988333333333,55.52375485321237L171.83765624999998,55.291997517402436L172.16563541666667,56.38330244519969L172.86844791666667,61.60668859928049L173.05586458333335,65.38893328437725L173.40727083333334,62.986677283522596L173.75867708333334,58.40653098111642L174.03980208333334,58.1886881526097L174.11008333333334,56.596598049150955L174.25064583333335,52.81491743467407L174.41463541666664,47.41422784293982L174.48491666666666,45.772449659100914L174.97688541666665,49.83452591257797L174.97688541666665,52.432771098691575L175.21115625,53.0015060220298L175.89054166666668,52.926544567460695L176.10138541666666,52.199276510519056L176.4059375,52.00640939558747L176.42936458333335,51.26164170137167L176.52307291666668,50.64392092776305L176.66363541666666,51.44819747810101L176.80419791666668,53.926697743197835L176.9681875,56.592277730858655L177.0150416666667,55.456446190556335L177.22588541666664,55.97020332607457L177.43672916666665,55.54431330318944L177.64757291666666,56.79294939763099L177.81156249999998,56.069858962523114L177.92869791666666,57.80958468238808L177.97555208333333,59.674986238733055L178.11611458333334,56.548457603427835L178.11611458333334,54.84196283201095L178.16296875,58.26820481784969L178.49094791666667,55.43058550934691L178.7955,55.64457820072856L179.19376041666666,53.445826216330644L179.35775,50.15957088017559L179.7794375,50.78082981751818L180.41196875,53.521185674712484L180.45882291666666,55.09373229053344L180.69309375,54.89819882728028L181.25534375,57.348039701750764L181.60675,55.97548198643909L182.09871875000002,56.63645631802895L182.68439583333335,52.6573935843808L182.8718125,52.804602702794625L182.96552083333336,48.502752621342296L183.03580208333335,53.05596709064815L183.62147916666666,54.86434945832329L183.64490625,53.83314673773826L183.69176041666665,49.419738862945906L183.83232291666667,50.92082937500932L184.16030208333333,53.899299893596776L184.44142708333334,56.5767453860489L184.53513541666666,58.247050169681344L184.79283333333333,59.13433385224299L185.19109375,58.47671660167008L185.58935416666668,62.061446409217666L185.87047916666668,68.66142067641879L185.89390625000001,71.61862830518203L186.05789583333336,71.09751109748196L186.10475,74.0106011703425L186.667,74.55056092208174L186.69042708333333,73.27762159942914L186.90127083333334,77.79764910118709L186.948125,77.54322356610986L187.04183333333333,79.11564078474404L187.06526041666666,77.5991959115858L187.13554166666665,76.20260912473967L187.3698125,75.70329459535661L187.39323958333333,76.40382778180853L188.35375000000002,73.34309764226208L188.42403125,71.2779201793534L189.29083333333332,64.22143934137796L189.99364583333332,51.450030167039614L190.06392708333334,46.67634259857917L190.34505208333334,47.399330330910686L190.76673958333333,41.54926084791302L190.79016666666666,35.88265471877793L190.86044791666666,38.48163234790118L190.95415625,34.93331890000209L191.16500000000002,34.516386387407636L191.3055625,33.088285970948704L191.37584375,31.83600940766354L191.61011458333334,34.38095900824453L192.05522916666666,35.6422696212577L192.64090625,39.81778355735426L192.92203125,53.80782876059807L193.20315625,54.567265019852954L193.62484375,57.34464937526991L193.90596875,58.50879363729629L193.92939583333333,61.36792987129864L194.81962499999997,61.21069768609337L194.88990625,60.93333483793708L195.2413125,65.71322766312318L195.33502083333332,63.84371058878979L195.38187499999998,59.7316347957579L195.45215625,60.67097988895806L196.15496875,58.82365617556711L196.52980208333332,58.77331206641598L196.55322916666668,55.022334268177914L196.6469375,49.641268571672725L196.69379166666667,44.58063946790966L196.88120833333335,44.20144516007588L196.95148958333334,51.19158590766348L196.99834375,45.40913609888355L197.32632291666667,40.727511441069055L197.63087499999997,35.93037519178225L197.86514583333332,39.181421282650945L198.23997916666667,36.20661683065077L198.23997916666667,34.6551221921321L198.26340625,33.88524557072907L198.54453125,41.477044893815076L199.29419791666666,44.01732984758917L199.43476041666668,46.493336649369866L200.18442708333333,49.5089770999011L200.67639583333332,56.76861458565203L200.72324999999998,55.66089698931154L201.23864583333332,56.984725610974905L201.44948958333333,59.08634399202606L201.89460416666665,59.94227352602235L202.24601041666668,62.231760093084006L202.31629166666667,64.63007028742626L202.43342708333333,61.07342152701216L202.64427083333334,60.6561138683939L202.92539583333334,62.127905590596825L203.11281250000002,62.87426461010293L203.18309375,58.032779132036396L203.27680208333334,59.959706207935824L203.81562499999998,55.53683381030447L203.88590624999998,52.270134436418886L204.07332291666665,53.47372231655467L204.14360416666665,45.585592676174855L204.26073958333333,48.383970728566254L204.47158333333334,50.207797369324496L204.659,47.77148153326047L204.68242708333332,41.97826814815082L205.05726041666668,39.929440939414604L205.43209375,38.92250740500904L205.97091666666668,43.07613390866487L206.11147916666667,45.11551362402051L206.25204166666668,44.136898858442095L207.0017083333333,49.69554011443242L207.35311458333334,52.338141448147326L207.79822916666666,56.99915115777817L208.07935416666666,64.24729023986227L208.17306250000001,66.73856458979745L208.24334375,66.60972996354839L208.43076041666666,69.38660822044257L208.61817708333334,64.4782276278231L208.78216666666668,67.43486180424318L208.82902083333335,63.65798070078205L209.03986458333335,65.94660914534063L209.27413541666664,63.38449092049969L210.58605208333333,56.39050727109522L210.67976041666665,56.70745274453276L210.75004166666668,57.08792840325846L211.03116666666668,57.0880227606867L211.05459375,52.30226327341377L211.49970833333333,51.332675931853856L211.80426041666666,47.63434713016119L211.94482291666668,48.20414247057272L212.20252083333335,44.05349837192091L212.88190625,41.49737689960915L213.04589583333333,47.44298236676073L213.16303125,45.608146733027155L213.20988541666665,45.5518978525422L213.74870833333333,43.72488003043992L214.59208333333333,48.86852282459074L214.84978125,56.653718960000944L214.89663541666667,57.73852200510932L214.94348958333333,53.79552417021691L215.06062500000002,54.471663371851236L215.29489583333336,57.21053001583759L215.59944791666666,58.59482936575036L215.99770833333332,57.25459519798636L216.09141666666667,60.08586755625123L216.747375,57.4826347414556L217.37990625,54.89187473227665L217.68445833333334,55.46924938992045L217.75473958333333,59.38928463665543L217.98901041666667,67.78907773857054L218.57468749999998,69.21686503468794L218.62154166666664,65.1701482521889L218.996375,61.76055320591779L219.58205208333334,56.684130365265375L219.81632291666668,57.54494702528031L220.19115625,56.04374427457053L220.30829166666666,48.125112298617495L220.30829166666666,43.58989481918729L220.61284375,46.586223733017476L220.70655208333335,52.261039556185864L220.87054166666667,57.694692262681585L221.36251041666665,54.35058689385987L221.6670625,51.97513326782851L222.53386458333333,55.57128497280003L223.33038541666667,59.827540615602274L223.68179166666667,63.361524869146294L224.08005208333336,63.996716794025986L224.10347916666666,61.734858561877985L224.36117708333333,68.10332711961013L224.80629166666665,67.0850412470336L224.85314583333331,67.73685656719815L224.92342708333334,68.73023940165885L225.0405625,67.77823545294366L225.34511458333333,71.84563931214561L225.36854166666666,69.1621311005551L225.43882291666668,66.8664336351513L225.6028125,68.5709763257479L225.74337500000001,67.92114769054108L225.95421875,66.58788099533578L225.97764583333333,64.42100580355613L226.23534375,64.79976253369769L226.25877083333333,63.927767360828895L226.25877083333333,63.587015303413295L226.30562500000002,60.51468215498406L226.51646875,62.08708723122392L226.93815625000002,65.66173222569005L227.12557291666664,63.79468979598175L227.2895625,66.55888636373798L227.2895625,68.3751193431814L227.54726041666666,66.27892414550115L227.66439583333332,65.05125462669874L227.75810416666667,65.66261168382478L227.87523958333333,65.95587845365684L228.43748958333333,67.35198663554876L228.53119791666666,68.41000940348744L228.57805208333335,67.56005594963125L228.90603125,70.9792475440493L229.07002083333333,69.69060414860989L229.14030208333335,61.27169083106722L229.30429166666667,60.026112739201295L229.42142708333336,59.00159910523912L229.49170833333335,56.39758944782031L229.51513541666668,55.31437183085528L229.56198958333334,59.495340068122445L229.84311458333335,54.61029885863769L229.96024999999997,60.77815693030726L230.00710416666666,64.56680613255483L230.1945208333333,65.48674567389081L230.35851041666666,66.14609197552225L230.78019791666665,62.310627997403L230.80362499999998,57.920672094448534L230.87390625,53.14410457019126L231.01446875,51.93572277031808L231.57671875,53.28173195012556L231.60014583333333,57.678380610673514L231.647,53.142494989544815L231.97497916666669,54.48485720872854L232.18582291666667,56.06627368495184L232.42009375,51.47961363549885L233.70858333333334,51.60668681442918L233.82571875,50.33181003989222L234.01313541666667,49.39950606846347L234.0365625,45.15240169770968L234.15369791666666,49.044248339776914L234.48167708333332,48.84633574718916L234.8799375,49.156372302447494L234.8799375,49.51142281943379L234.99707291666667,51.086872281885405L235.0205,51.74152480001622L235.48904166666668,49.62683600446806L235.77016666666665,54.21275967415903L235.95758333333333,55.99956093265652L235.98101041666666,52.2418094137022L236.07471875,53.722644604102655L236.26213541666667,50.1016691725587L236.49640625,52.36065452900341L236.77753125,52.30721919765824L237.03522916666665,47.41360860452173L237.36320833333335,45.60328318971136L237.50377083333333,47.97707301555715L237.99573958333335,43.171031925484726L238.01916666666668,44.93639241494381L238.5111354166667,46.70846756897953L238.60484375000001,47.63326305973746L239.54192708333332,52.07156179809169L239.56535416666665,50.01791582218303L240.57271875,49.81219313866788L240.66642708333333,49.88747768861853L241.18182291666668,50.51472691917766L241.20525,49.685778778638536L241.79092708333332,53.43249486827949L241.9080625,54.57858259694237L242.49373958333334,51.27244642737715L242.610875,50.80494181399138L242.70458333333332,51.48211065978562L243.0325625,57.73786147134622L243.47767708333333,55.289446656753015L243.66509375,55.15452175164516L244.15706250000002,52.71698401829843L244.7193125,51.64148863398448L245.18785416666665,55.62350293013171L245.49240625,56.927753090603105L245.70325,53.50356572503425L245.77353125,53.22222537081187L245.82038541666665,53.592050671264005L246.03122916666666,56.12652754417131L246.10151041666666,53.881521682229064L246.14836458333335,53.753269993105036L246.28892708333333,57.86842458317986L246.546625,52.15061292355777L247.08544791666668,48.81266157163492L247.34314583333335,48.417746380964786L247.7648333333333,51.661084162460355L247.95225,52.324039621843184L248.35051041666665,46.81389437455201L248.49107291666667,47.79712376829278L248.63163541666665,47.427727807579174L249.07675,47.10582855483952L249.14703125,51.61069699609915L249.19388541666666,50.86683275011629L249.4984375,48.35645740255188L249.80298958333333,47.931734741542215L250.74007291666666,51.77670827026641L250.78692708333332,61.203111818856186L250.83378125,56.84289388774738L251.41945833333332,56.18552519498279L251.65372916666666,52.95289279822646L251.84114583333334,62.6273946985518L251.86457291666667,61.22552216267741L251.888,56.63223994668684L252.12227083333335,57.38081266818263L252.19255208333334,56.32868053087945L252.47367708333334,57.29620264114553L252.75480208333335,61.05969625597167L252.77822916666668,60.539410752200226L252.94221875000002,61.75222203395687L253.41076041666665,59.5423781129104L253.48104166666664,62.87203323159906L253.64503125,64.76617470852443L253.76216666666664,69.52783674796235L253.87930208333333,65.91997774057806L253.92615625,68.89866673384705L254.418125,71.16556388729903L254.48840625,72.00812822139716L254.53526041666666,68.22289368908146L254.60554166666665,62.43375676943518L254.60554166666665,59.10129445172875L255.07408333333333,58.168772545389174L255.30835416666667,57.026355562434375L255.61290625,54.98722199568694L255.89403125,53.31869970575036L256.71397916666666,49.68440960038737L256.8311145833333,46.46369790315717L256.97167708333336,46.55322599644185L257.15909375,44.19277479622926L257.34651041666666,48.23211068618133L257.44021875,50.34773280164964L257.5573541666667,53.700354818981424L257.6276354166667,55.33450711156486L258.0961770833333,56.974127430200596L258.26016666666663,62.58162525934115L258.3070208333333,59.16608826470322L258.37730208333335,55.71743845351372L258.42415625,55.308123128725754L259.31438541666665,60.63400639520904L259.31438541666665,64.03578054761978L259.3378125,53.624306400752616L259.82978125,59.80455218296774L259.87663541666666,62.281343510001065L260.2280416666667,62.08009464192672L260.4857395833333,54.303403062843316L260.5560208333333,51.55610430200943L260.5794479166667,51.99063649766343L260.6497291666667,55.025230159318625L261.1182708333333,54.214004293058025L261.3056875,54.350817710145535L261.46967708333335,49.568009787788526L261.5868125,48.09732289022307L261.61023958333334,47.94755889419375L261.8210833333333,55.08043987932663L262.0553541666667,51.0761624095809L262.17248958333334,55.773544529489314L262.33647916666666,56.38247463403178L262.35990625,53.31009784518501L262.8284479166667,47.65844093220721L262.851875,50.18751361261846L263.10957291666665,48.83276960228508L263.36727083333335,50.275315333089324L263.8592395833333,48.67136761003928L263.99980208333335,51.559267436853915L264.0232291666667,49.17605334427799L264.14036458333334,55.26235127244499L264.23407291666666,56.321718993052485L264.2575,51.22003252740579L264.2809270833333,51.63526376182696L264.32778125,50.50324175811724L264.46834375,53.58504927606202L264.60890625,51.545747121213125L264.86660416666666,46.9840218299193L265.31171875,43.22209328818363L265.75683333333336,41.423801791782125L265.75683333333336,40.490120398934295L265.7802604166667,41.57562158183393L265.96767708333334,38.917167678531825L266.01453125,40.74238501823686L266.43621874999997,44.112574359463764L266.8110520833333,44.302376057120426L266.8110520833333,44.56242868063916L266.85790625,44.524826029487855L266.85790625,44.66502195702233L267.2561666666667,42.87946501967389L267.32644791666667,47.745910430864285L267.42015625,50.44304178848812L267.4904375,43.91277182052835L267.70128125,46.642203188970825L267.84184375,44.58482880382513" style="fill: none;" fill="none"></path></g></g></g></g><g opacity="0.20000000298023224"><g><g><g><path stroke="rgb(255, 112, 67)" stroke-width="2px" d="M23.63792708333333,8.032174160910984L23.919052083333334,-28.465898749729007L28.815312499999997,-11.031224607593515L28.979302083333334,1.1179945717255464L29.70554166666667,10.949114726649384L30.01009375,17.202222623758843L30.197510416666663,36.22051042152776L30.29121875,47.75983643697367L30.29121875,49.049833072556396L30.85346875,39.774798906511734L30.99403125,38.410361631876896L31.158020833333335,55.30311055978139L31.275156250000002,53.61024318304325L31.79055208333333,95.18959397905402L31.884260416666667,67.43718911045127L32.37622916666667,92.6849364058839L32.42308333333333,95.06381464335654L32.44651041666667,108.33350629442268L32.6105,107.51867289758391L32.63392708333333,69.76275952160358L32.727635416666665,118.40817669861846L32.821343750000004,120.59718938006294L32.891625000000005,91.7525959023171L33.21960416666667,141.17082581420738L34.48466666666666,126.1296711895201L34.789218749999996,121.27786757383082L34.812645833333335,139.28974167423115L34.882927083333335,145.01269202679396L34.953208333333336,130.53736540095673L35.16405208333333,168.56637539300652L35.18747916666667,185.5906791422102L35.91371875,181.42287957088814L36.218270833333335,132.02741242117352L36.28855208333333,153.85310441338353L36.35883333333333,140.39382985648183L36.967937500000005,185.12136676245265L37.01479166666666,173.38382758862443L37.03821875,186.80183521740966L37.389625,194.59142956137657L37.998729166666664,177.3072572251161L38.186145833333335,209.92646501296096L43.22296875,188.49667172382274L43.4338125,136.92448246520428L43.55094791666667,174.62000762754016L43.7149375,148.83000535931853L43.73836458333333,179.3057448334164L43.76179166666667,155.041789798273L44.277187500000004,196.16788274546465L44.81601041666667,102.16186289365092L45.02685416666667,154.32136156575547L45.1205625,116.29813648098045L45.28455208333333,150.52980708744792L45.30797916666667,141.63325095093913L45.4016875,141.08874419828254L45.87022916666666,154.32306688858404L46.08107291666666,141.7926562378804L46.19820833333333,108.33973402033249L46.221635416666665,99.67341059818864L46.854166666666664,111.74358665115304L46.994729166666666,71.62753827859544L47.27585416666666,81.326365188592L47.744395833333336,66.05869705499046L47.83810416666667,96.44253517438969L47.88495833333334,116.60110451156893L47.97866666666666,80.90586414167451L48.58777083333334,82.63876891819139L48.68147916666666,69.03924098031389L49.032885416666666,134.68748049189645L49.079739583333335,73.94528752337729L49.17344791666667,79.4025254961517L49.26715625,83.85190354473889L49.31401041666667,99.6215160228312L49.548281249999995,69.54774280927248L49.618562499999996,86.02988815783627L49.618562499999996,87.36725461027689L49.852833333333336,89.45437896355159L49.92311458333334,57.16829091558854L50.321374999999996,82.46933897108667L50.43851041666667,83.92524891429477L50.57907291666667,94.00036920338042L50.883624999999995,62.85456269482772L51.000760416666665,92.06872129937014L51.39902083333333,126.64502728564871L51.42244791666667,93.34192380267713L51.445875,106.48724936900867L51.96127083333333,120.67964786291122L52.1486875,106.35671679923931L52.17211458333333,114.88310482187403L52.24239583333333,96.67885193414986L52.52352083333333,68.53277187732358L52.54694791666667,83.97590453964139L52.66408333333333,96.61198632025885L52.68751041666667,113.0597755379147L52.73436458333333,107.34438607800338L52.89835416666667,120.62786163679428L52.96863541666667,105.3357513277895L53.08577083333333,95.70104479168853L53.24976041666667,69.98118452417354L53.32004166666667,82.70069050913055L54.86622916666666,80.14971128023333L55.077072916666665,81.60313861258328L55.5221875,47.824293635682096L55.686177083333334,59.8460399335664L56.0844375,78.68270496154825L57.068375,50.881666594184935L57.3495,48.79014114186995L58.16944791666667,45.250215997505535L58.263156249999994,44.883128770730565L58.68484375,71.45126466370291L59.012822916666664,56.714708019047976L59.036249999999995,67.62271127518679L59.715635416666665,37.8603479113016L60.441874999999996,65.07498252350425L60.62929166666667,52.007984036372775L60.84013541666667,62.54392071151071L60.8635625,52.758735923717424L61.26182291666667,41.669520918279886L61.37895833333333,33.99200208650694L61.40238541666667,26.7506643210848L61.4258125,67.78069388949208L61.44923958333333,46.54873689181275L61.44923958333333,47.32763602750168L62.128625,26.688132676813353L62.59716666666667,60.75502764268053L62.972,47.94659284088348L63.276552083333335,53.91319708112215L63.34683333333333,77.50731826821963L63.60453125,19.508120581507683L63.815375,41.80941863109666L64.00279166666667,35.10945491203003L64.19020833333333,71.86278450075125L64.5181875,62.32544624515705L64.56504166666666,41.53225185225409L65.59583333333333,41.48039967442554L65.80667708333334,70.72330380355318L65.83010416666667,30.730284815861125L65.85353125,72.96286847194035L65.9238125,84.18916882077853L66.25179166666666,65.21296292584802L66.41578125,45.869957165171684L67.07173958333334,65.72729205961029L67.11859375,65.09258691966534L67.23572916666667,52.07282399055029L67.84483333333334,79.60293390436304L68.10253125,57.22265868013103L68.14938541666666,63.156461365520954L68.17281249999999,62.08463770275314L68.28994791666666,84.68143239617348L68.68820833333334,83.5165178924799L68.82877083333332,84.25847229258054L69.437875,74.06081372333897L69.76585416666667,70.65410161473685L70.09383333333334,82.86833740460376L70.53894791666667,111.43305772791305L70.65608333333334,79.04270237932603L70.7029375,92.64122926443815L71.35889583333334,99.02692836688625L71.42917708333333,69.48124935146834L71.5463125,78.1010002658392L72.41311458333334,91.64689650738406L72.55367708333333,94.4267375972122L72.57710416666666,107.50150660922131L72.62395833333333,89.13871522847977L72.64738541666667,99.86277209470668L72.92851041666667,76.34912966140027L72.99879166666666,89.58430619082517L73.02221875,71.33185202359326L73.35019791666667,61.665429191612105L73.39705208333334,111.71551477619343L73.84216666666667,97.8708914346579L73.98272916666666,86.56963461016615L74.00615624999999,118.40448340276876L74.59183333333333,91.64132123233544L74.87295833333333,67.10543669087606L74.96666666666667,97.11427220039897L75.34150000000001,84.36369353760446L76.0443125,76.13135122114586L76.23172916666667,72.97745439958655L76.48942708333334,75.18894365988672L77.05167708333333,61.38686977171649L77.07510416666666,61.786526544640466L77.63735416666667,76.20452935600447L77.96533333333333,62.82456173230375L78.05904166666667,99.79895439205897L78.10589583333334,93.00950833285847L78.19960416666667,91.6859516977436L78.62129166666666,64.98567742859532L78.69157291666666,66.56926635233685L79.06640625,63.6125539602298L79.16011458333334,65.3421222867651L79.51152083333334,58.013392026070505L79.65208333333334,67.02214910079621L79.67551041666667,64.21760556184583L80.12062499999999,72.0879047797579L80.26118749999999,59.767123410943896L80.75315625,68.24393753407317L81.54967708333334,75.34948190301657L81.64338541666666,78.8755195012523L81.69023958333334,56.64346250488113L82.58046875000001,54.23439722684108L82.60389583333334,52.387978955275486L82.60389583333334,52.95769751625548L83.23642708333333,35.960147196633955L83.56440625,56.70081222895533L84.33749999999999,85.61848373628325L84.78261458333333,70.26723122989965L85.83683333333333,52.23350120335817L86.02425,49.96933654654359L86.18823958333333,56.74124298358542L86.91447916666667,63.107909128690764L87.17217708333332,48.82200288482838L88.01555208333333,37.45143787769808L88.03897916666666,31.70604274442627L88.4138125,13.820812418229053L88.6949375,48.91456611206132L88.85892708333333,44.230223313801815L89.37432291666667,28.698095882932364L89.70230208333334,29.653109642780493L89.72572916666667,23.001196456452192L89.77258333333334,22.640657292471985L89.93657291666668,24.872731730755817L90.42854166666666,41.48423900620804L90.45196874999999,35.78453663198485L91.0845,20.31670740909047L91.45933333333332,28.953828355504413L91.64675,42.611052263942014L91.69360416666666,39.18698543351556L92.09186458333333,36.92427642519277L92.11529166666666,43.450937889516354L92.18557291666667,29.92405340654983L92.60726041666668,39.089277972777666L92.86495833333333,22.846275885899843L93.14608333333332,36.96662213487758L93.1929375,29.38606645166874L93.26321875,26.85408602654934L93.59119791666667,39.76589071460896L93.82546875,9.684500078360259L93.87232291666666,41.88495218422676L94.05973958333334,32.55113148896231L94.10659375,35.767521090391625L94.62198958333333,26.33749569124646L94.92654166666667,30.319923844602357L95.11395833333333,43.7620650889973L95.23109375,22.149203980962454L95.81677083333334,39.71159832345114L96.05104166666666,35.874551296648036L96.19160416666666,29.679424375709544L96.26188541666666,37.22910052537918L96.425875,31.843488466822436L97.08183333333334,46.93545417446231L97.36295833333332,34.61611491048501L97.40981249999999,46.36181089778739L97.69093749999999,37.734252949555696L97.83149999999999,56.42234879235427L97.94863541666666,74.2432879768312L98.112625,48.50063197128475L98.39375,20.113347661784957L99.49482291666666,37.93374510005944L99.51825,43.7990757762972L99.56510416666667,37.47597191441392L99.799375,35.21151283031537L100.43190625,57.84885604927938L100.54904166666667,49.779800749073445L100.75988541666666,57.176744511764895L101.39241666666668,37.76776348530419L101.50955208333333,45.72716228788096L101.65011458333333,32.1871534143057L101.67354166666668,45.68045669897563L101.76724999999999,26.794851967857937L101.86095833333333,52.242663780434256L101.88438541666666,37.463982835412025L102.02494791666666,46.57852822211052L102.35292708333333,48.12035911302601L102.39978125,35.05971083355445L102.51691666666666,46.711621131540994L103.454,43.2761988296277L103.61798958333333,58.12221647219526L103.71169791666667,45.59442033577298L103.8756875,37.82455968608457L104.64878125000001,46.292808919524134L104.97676041666666,56.21669486765231L105.02361458333333,50.54336140097844L105.32816666666666,51.68954561857713L105.58586458333333,50.63031402188872L106.66351041666667,40.336344754944264L106.75721874999999,60.40532811358571L107.01491666666666,54.779623559779594L107.22576041666667,47.44168066937064L107.952,52.74361884925102L108.30340625,63.72305251989101L108.93593750000001,67.03644766741328L109.05307291666668,68.16526303067803L109.26391666666666,72.89059010686147L109.38105208333333,59.21200726553798L109.40447916666666,55.76322267577052L109.61532291666667,53.24194056044023L109.89644791666667,71.5085908335944L110.10729166666667,33.847921150839994L110.57583333333332,45.91034316685463L110.59926041666668,50.172331204017L110.69296874999999,54.69652911399801L110.81010416666666,57.32394166580505L110.83353125,49.89999303263093L111.02094791666667,49.24447070600257L111.39578125,44.78683691637383L111.63005208333334,50.27750534067552L112.54370833333333,62.44615672073431L112.96539583333333,38.30655363781585L113.15281250000001,56.926662687626134L113.34022916666667,34.30369929720956L113.45736458333334,63.38043337812026L113.52764583333332,55.420796678298046L113.83219791666666,61.04457449995809L113.94933333333333,56.15104700500767L114.16017708333334,57.70099231186842L114.32416666666667,44.368849100752016L114.5584375,51.66097439494396L114.65214583333334,46.98020241078402L114.76928125,57.604024452467755L115.16754166666666,47.868929989635944L115.23782291666666,49.43793063031302L115.94063541666667,72.60475067794323L115.9640625,49.56494420518476L116.33889583333334,53.54024957368772L116.92457291666666,76.26573961062563L117.01828125,60.426569275557995L117.43996875,53.47886737353272L117.55710416666668,65.97516214599212L117.69766666666668,63.41924124956131L117.90851041666666,58.24227685232957L119.24385416666668,59.590386367506454L119.29070833333334,51.842888058887596L119.45469791666666,55.66176538914442L119.64211458333332,61.36275382174385L119.71239583333333,49.72476404574181L120.20436458333333,51.1588745928473L120.39178125000001,54.26271288759179L120.53234375000001,60.35931737307047L120.95403125,52.4628906779819L121.0243125,46.537586341715524L121.04773958333332,50.17617995747261L121.11802083333333,44.0159509136445L121.37571875,41.68095411856967L121.446,61.664906877610434L121.53970833333334,56.48932746632231L122.59392708333333,40.54552945163513L122.64078125,54.37768085342313L122.96876041666667,52.74132467185457L123.01561458333333,46.85160599483385L123.08589583333334,50.06981397916873L123.76528124999999,41.12261634982295L124.06983333333334,51.64691725869973L124.16354166666666,58.75415635108948L124.56180208333333,39.02930902358557L124.56180208333333,39.35031484729714L124.6789375,37.13542082988553L125.12405208333334,53.04055229822795L125.21776041666668,42.238900887883375L125.26461458333333,36.98303468939329L126.20169791666667,50.15068019926548L126.50625000000001,38.85359482053255L126.71709374999999,39.7531384800871L126.76394791666667,41.667311535941224L126.99821874999999,23.737585003177344L127.13878125,46.71945760813023L127.41990625,36.69714344127311L127.4901875,28.486475683748722L127.70103125,24.741426583793412L127.72445833333333,38.99579613241886L127.74788541666668,44.05767479290563L128.00558333333333,38.774829633533955L128.07586458333333,28.69220733725362L128.35698958333333,45.51139184170299L128.54440625,33.510177724891236L128.75525000000002,41.923543357186844L128.82553124999998,58.35288729435868L128.94266666666667,37.0166417972909L129.1769375,29.94498836414681L129.48148958333334,50.02802885903252L129.57519791666667,45.44205774946346L129.83289583333334,44.88655590431557L130.65284375,40.61300747427677L131.49621875,53.1174519939555L131.56650000000002,37.338194078041454L131.89447916666666,33.49802376661037L132.12875,36.49547252886825L132.43330208333333,40.788523822195L132.5504375,43.201159914334596L132.92527083333334,35.51720136900741L133.15954166666668,44.83549985786277L133.6749375,40.094127672414004L133.69836458333333,47.52653696801926L133.93263541666667,33.12105320476823L134.02634375,56.13380063242383L134.33089583333333,54.27929503222306L135.15084375,40.987085582481484L135.24455208333333,55.52995618267191L135.33826041666666,47.500363560186486L135.47882291666667,46.49149080614251L135.73652083333334,53.84324115845894L135.87708333333333,45.65691900418864L136.18163541666667,48.89817240089178L136.46276041666667,39.89178782122002L136.53304166666666,49.97356216692262L136.81416666666667,52.41037427220081L137.02501041666667,57.37368338886236L137.72782291666667,44.31425050521892L137.84495833333332,44.41046934160923L138.36035416666667,49.26248965577946L138.68833333333333,47.597048769394576L138.71176041666666,51.09542904628647L139.18030208333332,34.88935520706906L139.46142708333332,47.49238340308267L140.23452083333333,41.061149354610194L141.14817708333334,44.67052636212773L141.19503125,41.42051080945467L141.24188541666666,48.48196999231976L141.405875,52.42460099856059L141.5464375,40.4251675779621L141.80413541666667,50.63114783995681L141.8744166666667,48.518073843585114L142.0618333333333,53.18942415465911L142.24925,48.91045826259588L142.530375,49.728495028283845L142.71779166666667,48.13821082810563L143.42060416666666,47.125475188096345L143.56116666666668,46.44965857764083L143.7954375,51.45935059090455L143.86571875,44.412664591438244L143.936,47.693361822515726L145.20106249999998,49.12745823711157L145.2244895833333,56.95751866698265L145.48218749999998,53.29182831943035L145.52904166666667,45.590646955702056L146.0444375,67.17651968118216L146.16157291666667,62.484300364222776L146.27870833333333,50.95492363555563L146.3255625,54.04646664692295L146.67696875000001,51.42968174235689L146.77067708333334,54.83486282908254L147.05180208333334,50.54460035098923L147.05180208333334,50.9429298457172L147.19236458333333,58.413525182339896L147.5671979166667,36.7970320193304L147.66090625,50.350589258803254L147.87175000000002,59.23836439599593L147.91860416666665,61.91499576800399L148.0357395833333,63.23507580575014L148.12944791666666,49.51712921427355L148.22315625,34.44814296729035L148.41057291666667,34.81685543267264L148.76197916666666,44.5117805923025L148.87911458333332,34.173887485431294L149.32422916666667,45.32721697621875L149.4179375,30.29685016721487L149.44136458333332,33.63139697081513L149.6990625,34.02567985695268L149.76934375,58.08358761254286L150.09732291666668,35.14284061061011L150.21445833333334,40.56178183770842L150.28473958333333,37.276548071040054L150.40187500000002,36.18031756414308L150.51901041666667,52.87378868460655L150.68300000000002,37.75115072023536L151.1281145833333,61.682629044685115L151.15154166666665,54.179962332877864L151.54980208333333,51.10239637353354L151.59665625,26.44887871046859L151.87778125,39.2471239728232L151.9480625,50.58336111406486L151.97148958333332,36.458742136342664L152.44003125,25.081200380292188L152.5103125,40.63221826569901L152.53373958333333,39.69513866056997L152.650875,46.561116970247696L152.72115625,27.69381619451775L152.88514583333333,41.375065369324545L152.97885416666668,41.013668833093504L153.16627083333333,45.02568103993934L153.4708229166667,47.65837443951105L153.68166666666664,42.45329105895425L153.79880208333336,43.761268957621525L154.0096458333333,47.53679245917334L154.31419791666667,46.53275773425895L154.59532291666667,43.160439443257104L154.61875,53.913710562305326L154.61875,54.404791717727974L155.3215625,52.46074724735486L155.34498958333333,55.459171152777145L155.46212500000001,44.09458419721986L155.90723958333334,51.10133643531137L156.49291666666667,50.37762003888686L157.07859374999998,62.4561295616958L157.17230208333334,46.41870838155347L157.59398958333333,55.967936788582136L157.80483333333333,49.93026015741957L158.03910416666668,61.51921954668231L158.36708333333334,49.15971333492135L158.39051041666667,59.218720207611725L158.48421875,62.32044804758496L158.50764583333333,51.12941773194407L158.6950625,51.03286913699574L158.78877083333333,44.34525252050824L158.90590625000002,54.13832795951103L159.06989583333333,61.94121157336568L159.2573125,56.41945633871687L159.72585416666666,40.72456008361445L159.86641666666665,49.658124552004864L160.00697916666667,50.51677815036642L160.12411458333332,39.83679822625385L160.28810416666667,39.656377897494366L160.31153125,49.69924073335196L160.73321875,43.152087130066406L161.15490625,41.84556016905441L161.48288541666668,50.26856888375349L161.646875,55.852526004115745L161.99828125000002,51.29335955447621L162.27940625000002,47.237395242684414L162.49024999999997,40.2205665252275L162.88851041666666,35.455442301929L163.1930625,40.213330680297474L163.35705208333331,32.45166217535734L163.38047916666667,33.58523077269393L163.61475,37.12814729826317L163.68503125,46.42808294627403L163.84902083333333,42.74535821378231L163.96615625,50.58794004718463L164.01301041666667,38.05062331010896L164.10671875,52.62699737979305L164.3175625,46.35194640606642L164.458125,30.541144728660583L165.6060520833333,59.23249469366337L165.77004166666666,64.57480003188054L165.91060416666664,52.85692388978268L165.95745833333334,51.00599852535461L166.14487499999998,60.54331322676606L166.51970833333334,56.342537799643154L166.63684375,48.64810235384439L167.15223958333334,55.99396416048209L167.38651041666668,50.48200275500615L167.4099375,57.33158735351431L167.59735416666666,64.83004257745213L167.78477083333334,58.59626795351505L168.62814583333332,58.78942167345022L168.72185416666665,65.60945990516079L169.0966875,56.80364390214284L169.30753124999998,60.22522812171114L169.35438541666667,45.581536197827916L169.61208333333335,59.67520969029928L170.36175,60.72564144432545L170.45545833333333,63.84652354568243L170.71315625,58.84726132452488L170.97085416666667,64.36534210667014L171.2988333333333,46.3886956419382L171.83765624999998,54.9443615136875L172.16563541666667,58.02025983689559L172.86844791666667,69.44176783040166L173.05586458333335,71.06230031202237L173.40727083333334,59.38329328224063L173.75867708333334,51.53631152750718L174.03980208333334,57.861923909849594L174.11008333333334,54.20846289396286L174.25064583333335,47.142396512958754L174.41463541666664,39.31319345533848L174.48491666666666,43.309782383342565L174.97688541666665,55.92764029279351L174.97688541666665,56.33013887786203L175.21115625,53.854608407037134L175.89054166666668,52.814102385607015L176.10138541666666,51.108374425106575L176.4059375,51.71710872319008L176.42936458333335,50.14449016004801L176.52307291666668,49.7173397673501L176.66363541666666,52.65461230360799L176.80419791666668,57.64444814084304L176.9681875,60.59064771234989L177.0150416666667,53.75269888010288L177.22588541666664,56.740839029351875L177.43672916666665,54.90547826886177L177.64757291666666,58.66590353929334L177.81156249999998,54.9852233098613L177.92869791666666,60.419173262185524L177.97555208333333,62.47308857325052L178.11611458333334,51.85866465047002L178.11611458333334,52.282220674885636L178.16296875,63.40756779660781L178.49094791666667,51.17415654659271L178.7955,55.965567237801025L179.19376041666666,50.14769823973377L179.35775,45.230187875943045L179.7794375,51.712718223532036L180.41196875,57.63171946050393L180.45882291666666,57.45255221426487L180.69309375,54.60489863240056L181.25534375,61.02280101345646L181.60675,53.916645413471585L182.09871875000002,57.627917815413724L182.68439583333335,46.688799483908554L182.8718125,53.025416380415365L182.96552083333336,42.049977499163816L183.03580208333335,59.885788794606924L183.62147916666666,57.57692300983601L183.64490625,52.286342656860754L183.69176041666665,42.79962705075741L183.83232291666667,53.17246514310439L184.16030208333333,58.36700567147798L184.44142708333334,60.59291362472706L184.53513541666666,60.75250734513004L184.79283333333333,60.46525937608547L185.19109375,57.49029072581065L185.58935416666668,67.43854112053911L185.87047916666668,78.56138207722043L185.89390625000001,76.05443974832694L186.05789583333336,70.31583528593183L186.10475,78.3802362796333L186.667,75.3605005496906L186.69042708333333,71.36821261545022L186.90127083333334,84.57769035382402L186.948125,77.161585263494L187.04183333333333,81.47426661269533L187.06526041666666,75.32452860184841L187.13554166666665,74.10772894447048L187.3698125,74.954322801282L187.39323958333333,77.45462756148643L188.35375000000002,68.75200243294239L188.42403125,68.18015398499037L189.29083333333332,53.636718084414795L189.99364583333332,32.29291640553211L190.06392708333334,39.51581124588847L190.34505208333334,48.48381192940806L190.76673958333333,32.774156623416474L190.79016666666666,27.382745525075336L190.86044791666666,42.38009879158602L190.95415625,29.610848728153456L191.16500000000002,33.89098761851591L191.3055625,30.94613534626032L191.37584375,29.957594562735807L191.61011458333334,38.19838340911602L192.05522916666666,37.534235540777445L192.64090625,46.081054461499036L192.92203125,74.79289656546379L193.20315625,55.706419408735286L193.62484375,61.5107259083953L193.90596875,60.25501003033585L193.92939583333333,65.65663422230219L194.81962499999997,60.97484940828549L194.88990625,60.517290565702666L195.2413125,72.88306690090232L195.33502083333332,61.03943497728969L195.38187499999998,53.563521106210004L195.45215625,62.0799975287583L196.15496875,56.05267060548067L196.52980208333332,58.69779590268929L196.55322916666668,49.3958675708208L196.6469375,41.569670026914935L196.69379166666667,36.9896958122651L196.88120833333335,43.63265369832516L196.95148958333334,61.67679702904488L196.99834375,36.73546138571368L197.32632291666667,33.70507445434731L197.63087499999997,28.73467081785202L197.86514583333332,44.057990418954034L198.23997916666667,31.744410152650545L198.23997916666667,32.32788023435407L198.26340625,32.73043063862457L198.54453125,52.86474387844403L199.29419791666666,47.82775727825032L199.43476041666668,50.207346852040956L200.18442708333333,54.03243777569796L200.67639583333332,67.65807081427837L200.72324999999998,53.999320594800835L201.23864583333332,58.970468543469906L201.44948958333333,62.23877156360281L201.89460416666665,61.22616782701678L202.24601041666668,65.66598994367652L202.31629166666667,68.22753557893967L202.43342708333333,55.738448386391L202.64427083333334,60.03015238046646L202.92539583333334,64.33559317390124L203.11281250000002,63.993803139362086L203.18309375,50.77055091493659L203.27680208333334,62.85009682178497L203.81562499999998,48.90252521385747L203.88590624999998,47.37008537559046L204.07332291666665,55.27910413675838L204.14360416666665,33.75339821560516L204.26073958333333,52.58153780715334L204.47158333333334,52.943537330461865L204.659,44.11700777916445L204.68242708333332,33.28844807048637L205.05726041666668,36.85620012631017L205.43209375,37.41210710340076L205.97091666666668,49.30657366414863L206.11147916666667,48.17458319705392L206.25204166666668,42.668976710074475L207.0017083333333,58.033501998417904L207.35311458333334,56.30204344871973L207.79822916666666,63.99066572222446L208.07935416666666,75.11949886298842L208.17306250000001,70.47547611470024L208.24334375,66.41647802417476L208.43076041666666,73.55192560578386L208.61817708333334,57.11565673889386L208.78216666666668,71.86981306887336L208.82902083333335,57.99265904559029L209.03986458333335,69.37955181217856L209.27413541666664,59.54131358323825L210.58605208333333,45.8995317969885L210.67976041666665,57.18287095468904L210.75004166666668,57.658641891347045L211.03116666666668,57.088164296829035L211.05459375,45.12362404250436L211.49970833333333,49.87829491951399L211.80426041666666,42.08685392762226L211.94482291666668,49.058835481190016L212.20252083333335,37.82753222394322L212.88190625,37.66319469114143L213.04589583333333,56.361390567488144L213.16303125,42.855893282426734L213.20988541666665,45.4675245318148L213.74870833333333,40.98435329728656L214.59208333333333,56.583987015816916L214.84978125,68.33151316311623L214.89663541666667,59.36572657277186L214.94348958333333,47.88102741787833L215.06062500000002,55.48587217430274L215.29489583333336,61.31882998181713L215.59944791666666,60.671278390619506L215.99770833333332,55.24424394634033L216.09141666666667,64.33277609364855L216.747375,53.57778551926215L217.37990625,51.005734718508194L217.68445833333334,56.335311376386215L217.75473958333333,65.26933750675785L217.98901041666667,80.38876739144325L218.57468749999998,71.35854597886403L218.62154166666664,59.1000730784403L218.996375,56.6461606365111L219.58205208333334,49.06949610428677L219.81632291666668,58.83617201530271L220.19115625,53.791940148505915L220.30829166666666,36.24716433468794L220.30829166666666,36.787068600042005L220.61284375,51.08071710376275L220.70655208333335,60.77326329093839L220.87054166666667,65.8451713224252L221.36251041666665,49.334428840627254L221.6670625,48.411952828781466L222.53386458333333,60.9655125302573L223.33038541666667,66.21192407980561L223.68179166666667,68.66250124946237L224.08005208333336,64.94950468134547L224.10347916666666,58.342071213656L224.36117708333333,77.65602995620834L224.80629166666665,65.55761243816877L224.85314583333331,68.71457954744498L224.92342708333334,70.22031365334988L225.0405625,66.35022952987087L225.34511458333333,77.94674510094856L225.36854166666666,65.13686878316932L225.43882291666668,63.422887437045574L225.6028125,71.12779036164284L225.74337500000001,66.94640473773082L225.95421875,64.58798095252777L225.97764583333333,61.17069301588667L226.23534375,65.36789762891001L226.25877083333333,62.619774601525734L226.25877083333333,63.075887217289875L226.30562500000002,55.90618243234026L226.51646875,64.44569484558369L226.93815625000002,71.02369971738922L227.12557291666664,60.99412615141935L227.2895625,70.70518121537233L227.2895625,71.09946881234646L227.54726041666666,63.13463134898079L227.66439583333332,63.20975034849512L227.75810416666667,66.57964726951386L227.87523958333333,66.39577860840492L228.43748958333333,69.44614890838663L228.53119791666666,69.99704355539548L228.57805208333335,66.28512576884694L228.90603125,76.10803493567639L229.07002083333333,67.75763905545075L229.14030208333335,48.643320854753256L229.30429166666667,58.1577456014024L229.42142708333336,57.46482865429587L229.49170833333335,52.491574961692095L229.51513541666668,53.68954540540774L229.56198958333334,65.76679242402315L229.84311458333335,47.28273704441057L229.96024999999997,70.02994403781163L230.00710416666666,70.2497799359262L230.1945208333333,66.86665498589475L230.35851041666666,67.1351114279694L230.78019791666665,56.557432030224135L230.80362499999998,51.33573824001682L230.87390625,45.97925328380532L231.01446875,50.123150070508316L231.57671875,55.300745719836826L231.60014583333333,64.27335360149543L231.647,46.33866655785178L231.97497916666669,56.49840053750408L232.18582291666667,58.4383983992868L232.42009375,44.59962356131936L233.70858333333334,51.79729658282466L233.82571875,48.419494878086795L234.01313541666667,48.00105011132027L234.0365625,38.78174514157905L234.15369791666666,54.88201830287774L234.48167708333332,48.54946685830754L234.8799375,49.62142713533507L234.8799375,50.04399859491323L234.99707291666667,53.4500464755628L235.0205,52.7235035772125L235.48904166666668,46.45480281114578L235.77016666666665,61.091645178695515L235.95758333333333,58.679762820402786L235.98101041666666,46.605182135270695L236.07471875,55.943897389703324L236.26213541666667,44.670206025242805L236.49640625,55.74913256367047L236.77753125,52.22706620064045L237.03522916666665,40.073192714817L237.36320833333335,42.88779506749577L237.50377083333333,51.53775775432587L237.99573958333335,35.96197029037609L238.01916666666668,47.58443314913248L238.5111354166667,49.36658030003309L238.60484375000001,49.02045629587437L239.54192708333332,58.72900990562307L239.56535416666665,46.93744685831999L240.57271875,49.503609113395214L240.66642708333333,50.00040451354451L241.18182291666668,51.45560076501633L241.20525,48.44235656782985L241.79092708333332,59.05256900274091L241.9080625,56.29771418993671L242.49373958333334,46.31324217302932L242.610875,50.10368489391274L242.70458333333332,52.497863928476974L243.0325625,67.1214876886871L243.47767708333333,51.616824434863204L243.66509375,54.952134393983414L244.15706250000002,49.06067741827832L244.7193125,50.028245557513486L245.18785416666665,61.59652437435257L245.49240625,58.88412833131022L245.70325,48.36728467668098L245.77353125,52.80021483947833L245.82038541666665,54.14678862194221L246.03122916666666,59.92824285353224L246.10151041666666,50.51401288931568L246.14836458333335,53.56089245941902L246.28892708333333,64.04115646829207L246.546625,43.57389543412461L247.08544791666668,43.8057345437507L247.34314583333335,47.82537359495956L247.7648333333333,56.526090834703695L247.95225,53.31847281091743L248.35051041666665,38.54867650361524L248.49107291666667,49.271967858903935L248.63163541666665,46.87363386650878L249.07675,46.62297967573005L249.14703125,58.36799965798855L249.19388541666666,49.751036381142L249.4984375,44.59089438120526L249.80298958333333,47.294650750027756L250.74007291666666,57.5441685633527L250.78692708333332,75.34271714174085L250.83378125,50.30256699108415L251.41945833333332,55.19947215583588L251.65372916666666,48.103944203092L251.84114583333334,77.13914754903979L251.86457291666667,59.12271335886585L251.888,49.74231662270094L252.12227083333335,58.50367175042629L252.19255208333334,54.75048232492472L252.47367708333334,58.74748580654462L252.75480208333335,66.7049366782109L252.77822916666668,59.758982496543055L252.94221875000002,63.571438956591834L253.41076041666665,56.22761223134066L253.48104166666664,67.86651590963204L253.64503125,67.60738692391251L253.76216666666664,76.67032980711924L253.87930208333333,60.50818922950161L253.92615625,73.36670022375054L254.418125,74.56590961747699L254.48840625,73.27197472254436L254.53526041666666,62.54504189060795L254.60554166666665,53.75005138996576L254.60554166666665,54.10260097516907L255.07408333333333,56.76998968587982L255.30835416666667,55.312730088002155L255.61290625,51.92852164556582L255.89403125,50.81591627084546L256.71397916666666,44.232974442342936L256.8311145833333,41.632630357311825L256.97167708333336,46.68751813636885L257.15909375,40.652097995910395L257.34651041666666,54.29111452110939L257.44021875,53.521165974852096L257.5573541666667,58.7292878449791L257.6276354166667,57.78573555044002L258.0961770833333,59.4335579081542L258.26016666666663,70.99287200305199L258.3070208333333,54.042782772746335L258.37730208333335,50.5444637367295L258.42415625,54.694150141543815L259.31438541666665,68.62283129493396L259.31438541666665,69.1384417762359L259.3378125,38.00709518045187L259.82978125,69.07492085629039L259.87663541666666,65.99653050055106L260.2280416666667,61.77822133981519L260.4857395833333,42.63836569421821L260.5560208333333,47.435156160758595L260.5794479166667,52.64243479114438L260.6497291666667,59.57712065180142L261.1182708333333,52.997165493667126L261.3056875,54.556037835776806L261.46967708333335,42.393797904253006L261.5868125,45.89129254387484L261.61023958333334,47.72291290014982L261.8210833333333,65.77976135702598L262.0553541666667,45.069746204962314L262.17248958333334,62.8196177093519L262.33647916666666,57.295869790845444L262.35990625,48.701532661914825L262.8284479166667,39.180955562740564L262.851875,53.98112263323533L263.10957291666665,46.80065358678502L263.36727083333335,52.439133929295664L263.8592395833333,46.265446025464286L263.99980208333335,55.89111717707581L264.0232291666667,45.60123220541411L264.14036458333334,64.3917981646955L264.23407291666666,57.91077057396372L264.2575,43.5675028289358L264.2809270833333,52.25811061345868L264.32778125,48.80520875255269L264.46834375,58.20776055297918L264.60890625,48.48679388893976L264.86660416666666,40.14143389297857L265.31171875,37.579200475580166L265.75683333333336,38.7263645471798L265.75683333333336,39.08959830966259L265.7802604166667,43.20387335618335L265.96767708333334,34.92948682357866L266.01453125,43.48021102779441L266.43621874999997,49.167858371304135L266.8110520833333,44.58707860360545L266.8110520833333,44.952507615917256L266.85790625,44.4684220527609L266.85790625,44.87531584832405L267.2561666666667,40.201129613651176L267.32644791666667,55.04557854764991L267.42015625,54.48873882492383L267.4904375,34.117366868588675L267.70128125,50.7363502416346L267.84184375,41.498767226106594" style="fill: none;" fill="none"></path></g></g></g></g></g></g><g transform="translate(48, 177)" clip-path="url(#clip_1)"><clipPath id="clip_1"><rect width="281" height="22"></rect></clipPath><g><g><line x1="0" y1="0" x2="0" y2="5" style="visibility: inherit;" fill="rgb(0, 0, 0)" stroke="rgb(204, 204, 204)" stroke-width="1px"></line><line x1="23.427083333333332" y1="0" x2="23.427083333333332" y2="5" style="visibility: inherit;" fill="rgb(0, 0, 0)" stroke="rgb(204, 204, 204)" stroke-width="1px"></line><line x1="46.854166666666664" y1="0" x2="46.854166666666664" y2="5" style="visibility: inherit;" fill="rgb(0, 0, 0)" stroke="rgb(204, 204, 204)" stroke-width="1px"></line><line x1="70.28125" y1="0" x2="70.28125" y2="5" style="visibility: inherit;" fill="rgb(0, 0, 0)" stroke="rgb(204, 204, 204)" stroke-width="1px"></line><line x1="93.70833333333333" y1="0" x2="93.70833333333333" y2="5" style="visibility: inherit;" fill="rgb(0, 0, 0)" stroke="rgb(204, 204, 204)" stroke-width="1px"></line><line x1="117.13541666666667" y1="0" x2="117.13541666666667" y2="5" style="visibility: inherit;" fill="rgb(0, 0, 0)" stroke="rgb(204, 204, 204)" stroke-width="1px"></line><line x1="140.5625" y1="0" x2="140.5625" y2="5" style="visibility: inherit;" fill="rgb(0, 0, 0)" stroke="rgb(204, 204, 204)" stroke-width="1px"></line><line x1="163.98958333333334" y1="0" x2="163.98958333333334" y2="5" style="visibility: inherit;" fill="rgb(0, 0, 0)" stroke="rgb(204, 204, 204)" stroke-width="1px"></line><line x1="187.41666666666666" y1="0" x2="187.41666666666666" y2="5" style="visibility: inherit;" fill="rgb(0, 0, 0)" stroke="rgb(204, 204, 204)" stroke-width="1px"></line><line x1="210.84375" y1="0" x2="210.84375" y2="5" style="visibility: inherit;" fill="rgb(0, 0, 0)" stroke="rgb(204, 204, 204)" stroke-width="1px"></line><line x1="234.27083333333334" y1="0" x2="234.27083333333334" y2="5" style="visibility: inherit;" fill="rgb(0, 0, 0)" stroke="rgb(204, 204, 204)" stroke-width="1px"></line><line x1="257.69791666666663" y1="0" x2="257.69791666666663" y2="5" style="visibility: inherit;" fill="rgb(0, 0, 0)" stroke="rgb(204, 204, 204)" stroke-width="1px"></line><line x1="281.125" y1="0" x2="281.125" y2="5" style="visibility: inherit;" fill="rgb(0, 0, 0)" stroke="rgb(204, 204, 204)" stroke-width="1px"></line></g><g transform="translate(0, 8)"><text x="0" y="0" dx="0em" dy="0.95em" style="text-anchor: middle; visibility: hidden; font-family: &quot;Helvetica Neue&quot;, sans-serif; font-size: 12px; font-weight: 200;" fill="rgb(50, 49, 63)" stroke="none" stroke-width="1px">-1k</text><text x="23.427083333333332" y="0" dx="0em" dy="0.95em" style="text-anchor: middle; visibility: inherit; font-family: &quot;Helvetica Neue&quot;, sans-serif; font-size: 12px; font-weight: 200;" fill="rgb(50, 49, 63)" stroke="none" stroke-width="1px">0</text><text x="46.854166666666664" y="0" dx="0em" dy="0.95em" style="text-anchor: middle; visibility: inherit; font-family: &quot;Helvetica Neue&quot;, sans-serif; font-size: 12px; font-weight: 200;" fill="rgb(50, 49, 63)" stroke="none" stroke-width="1px">1k</text><text x="70.28125" y="0" dx="0em" dy="0.95em" style="text-anchor: middle; visibility: inherit; font-family: &quot;Helvetica Neue&quot;, sans-serif; font-size: 12px; font-weight: 200;" fill="rgb(50, 49, 63)" stroke="none" stroke-width="1px">2k</text><text x="93.70833333333333" y="0" dx="0em" dy="0.95em" style="text-anchor: middle; visibility: inherit; font-family: &quot;Helvetica Neue&quot;, sans-serif; font-size: 12px; font-weight: 200;" fill="rgb(50, 49, 63)" stroke="none" stroke-width="1px">3k</text><text x="117.13541666666667" y="0" dx="0em" dy="0.95em" style="text-anchor: middle; visibility: inherit; font-family: &quot;Helvetica Neue&quot;, sans-serif; font-size: 12px; font-weight: 200;" fill="rgb(50, 49, 63)" stroke="none" stroke-width="1px">4k</text><text x="140.5625" y="0" dx="0em" dy="0.95em" style="text-anchor: middle; visibility: inherit; font-family: &quot;Helvetica Neue&quot;, sans-serif; font-size: 12px; font-weight: 200;" fill="rgb(50, 49, 63)" stroke="none" stroke-width="1px">5k</text><text x="163.98958333333334" y="0" dx="0em" dy="0.95em" style="text-anchor: middle; visibility: inherit; font-family: &quot;Helvetica Neue&quot;, sans-serif; font-size: 12px; font-weight: 200;" fill="rgb(50, 49, 63)" stroke="none" stroke-width="1px">6k</text><text x="187.41666666666666" y="0" dx="0em" dy="0.95em" style="text-anchor: middle; visibility: inherit; font-family: &quot;Helvetica Neue&quot;, sans-serif; font-size: 12px; font-weight: 200;" fill="rgb(50, 49, 63)" stroke="none" stroke-width="1px">7k</text><text x="210.84375" y="0" dx="0em" dy="0.95em" style="text-anchor: middle; visibility: inherit; font-family: &quot;Helvetica Neue&quot;, sans-serif; font-size: 12px; font-weight: 200;" fill="rgb(50, 49, 63)" stroke="none" stroke-width="1px">8k</text><text x="234.27083333333334" y="0" dx="0em" dy="0.95em" style="text-anchor: middle; visibility: inherit; font-family: &quot;Helvetica Neue&quot;, sans-serif; font-size: 12px; font-weight: 200;" fill="rgb(50, 49, 63)" stroke="none" stroke-width="1px">9k</text><text x="257.69791666666663" y="0" dx="0em" dy="0.95em" style="text-anchor: middle; visibility: inherit; font-family: &quot;Helvetica Neue&quot;, sans-serif; font-size: 12px; font-weight: 200;" fill="rgb(50, 49, 63)" stroke="none" stroke-width="1px">10k</text><text x="281.125" y="0" dx="0em" dy="0.95em" style="text-anchor: middle; visibility: hidden; font-family: &quot;Helvetica Neue&quot;, sans-serif; font-size: 12px; font-weight: 200;" fill="rgb(50, 49, 63)" stroke="none" stroke-width="1px">11k</text></g><line x1="0" y1="0" x2="281.125" y2="0" fill="rgb(0, 0, 0)" stroke="rgb(204, 204, 204)" stroke-width="1px"></line></g></g></g></g></svg>